<svg xmlns="http://www.w3.org/2000/svg" xml:space="preserve" width="253.754mm" height="157.298mm" version="1.1"
    style="shape-rendering:geometricPrecision; text-rendering:geometricPrecision; image-rendering:optimizeQuality; fill-rule:evenodd; clip-rule:evenodd"
    viewBox="0 0 2745 1702" xmlns:xlink="http://www.w3.org/1999/xlink">
    <defs>
        <style type="text/css">
            <![CDATA[
            .fil0 {
                fill: #2B2A29;
                fill-rule: nonzero
            }

            .fil1 {
                fill: #FF7700;
                fill-rule: nonzero
            }
            ]]>
        </style>
    </defs>
    <g id="Camada_x0020_1">
        <metadata id="CorelCorpID_0Corel-Layer" />
        <g id="_1648026960">
            <g>
                <path class="fil0"
                    d="M787 1524l17 0 0 23c6,-8 14,-15 22,-20 8,-4 18,-6 28,-6 18,0 34,6 47,19 13,13 19,29 19,48 0,18 -6,34 -19,47 -13,13 -28,20 -46,20 -10,0 -20,-2 -28,-6 -9,-5 -17,-11 -23,-19l0 68 -17 0 0 -174zm66 13c-14,0 -26,5 -36,14 -10,10 -15,23 -15,38 0,9 3,18 7,26 4,7 10,14 19,18 8,5 16,7 25,7 9,0 17,-2 25,-7 8,-4 14,-11 19,-19 4,-8 7,-17 7,-26 0,-9 -3,-18 -7,-26 -5,-8 -11,-14 -19,-19 -7,-4 -16,-6 -25,-6zm174 -16c19,0 36,7 49,21 11,13 17,28 17,46 0,18 -6,34 -18,47 -13,13 -29,20 -48,20 -20,0 -36,-7 -48,-20 -13,-13 -19,-29 -19,-47 0,-17 6,-33 18,-46 13,-14 29,-21 49,-21zm0 16c-14,0 -26,5 -35,15 -10,10 -15,22 -15,37 0,9 2,17 7,25 4,8 10,15 18,19 7,4 16,6 25,6 9,0 17,-2 25,-6 7,-4 13,-11 18,-19 4,-8 6,-16 6,-25 0,-15 -4,-27 -14,-37 -10,-10 -22,-15 -35,-15zm106 -13l17 0 0 19c5,-8 10,-13 16,-17 5,-3 11,-5 17,-5 4,0 9,1 14,4l-8 14c-4,-2 -7,-2 -9,-2 -5,0 -11,2 -16,6 -5,5 -9,12 -11,21 -2,8 -3,22 -3,45l0 43 -17 0 0 -128zm108 -47l17 0 0 47 26 0 0 14 -26 0 0 114 -17 0 0 -114 -22 0 0 -14 22 0 0 -47zm80 47l17 0 0 60c0,14 1,24 2,30 3,8 7,14 14,18 6,5 14,7 23,7 10,0 17,-2 24,-7 6,-4 11,-10 13,-17 2,-5 2,-15 2,-31l0 -60 17 0 0 63c0,17 -2,31 -6,39 -4,9 -10,16 -19,21 -8,5 -18,8 -31,8 -12,0 -22,-3 -31,-8 -8,-5 -14,-12 -18,-21 -5,-9 -7,-22 -7,-41l0 -61zm274 0l17 0 0 102c0,18 -2,31 -5,39 -4,12 -12,21 -23,27 -10,7 -23,10 -38,10 -11,0 -21,-2 -29,-5 -9,-3 -16,-7 -22,-12 -5,-6 -10,-13 -15,-23l18 0c5,8 11,15 19,19 7,4 17,6 28,6 11,0 21,-2 29,-7 7,-4 13,-9 16,-15 3,-7 5,-17 5,-31l0 -7c-6,8 -14,14 -23,18 -9,5 -18,7 -28,7 -12,0 -23,-3 -33,-9 -10,-6 -18,-14 -24,-24 -6,-9 -9,-20 -9,-32 0,-12 3,-23 9,-33 6,-10 14,-18 25,-24 10,-6 21,-9 32,-9 10,0 19,2 27,6 8,4 16,10 24,19l0 -22zm-48 13c-10,0 -18,2 -26,6 -8,5 -15,11 -19,19 -5,8 -7,17 -7,26 0,14 5,25 14,34 10,10 22,14 37,14 15,0 27,-4 36,-13 9,-9 14,-21 14,-36 0,-10 -2,-18 -6,-26 -5,-8 -11,-13 -18,-18 -8,-4 -17,-6 -25,-6zm242 -13l0 128 -16 0 0 -22c-7,8 -14,14 -23,19 -9,4 -18,6 -28,6 -18,0 -34,-7 -46,-20 -13,-13 -20,-29 -20,-47 0,-19 7,-35 20,-48 13,-13 28,-19 46,-19 11,0 20,2 29,6 8,5 16,12 22,20l0 -23 16 0zm-65 13c-9,0 -18,2 -26,6 -7,5 -14,11 -18,19 -5,8 -7,17 -7,26 0,9 2,18 7,26 4,8 11,15 19,19 7,5 16,7 25,7 9,0 17,-2 25,-7 8,-4 14,-11 19,-18 4,-8 6,-17 6,-26 0,-15 -5,-28 -14,-38 -10,-9 -22,-14 -36,-14zm115 -62l17 0 0 177 -17 0 0 -177z" />
                <path class="fil0"
                    d="M32 1036l61 0 0 90 36 0 0 53 -36 0 0 191 -61 0 0 -191 -32 0 0 -53 32 0 0 -90zm245 84c23,0 45,5 65,17 20,12 36,27 47,47 12,20 17,41 17,64 0,23 -5,45 -17,65 -11,20 -27,35 -47,47 -19,11 -41,17 -65,17 -35,0 -65,-13 -90,-38 -25,-25 -37,-55 -37,-91 0,-38 14,-70 42,-95 25,-22 53,-33 85,-33zm1 57c-19,0 -35,7 -48,20 -12,13 -19,30 -19,51 0,21 7,39 19,52 13,13 28,20 48,20 19,0 35,-7 47,-20 13,-14 19,-31 19,-52 0,-21 -6,-38 -18,-51 -13,-13 -29,-20 -48,-20zm239 -51l0 27c12,-11 23,-19 36,-25 13,-6 27,-8 42,-8 32,0 59,12 81,36 22,24 33,55 33,93 0,36 -11,66 -34,91 -23,24 -50,37 -82,37 -14,0 -27,-3 -39,-8 -13,-5 -25,-13 -37,-24l0 115 -60 0 0 -334 60 0zm65 50c-19,0 -35,7 -48,20 -13,13 -19,30 -19,52 0,21 6,39 19,52 13,14 29,21 48,21 19,0 34,-7 47,-21 13,-14 19,-31 19,-52 0,-21 -6,-38 -19,-52 -12,-13 -28,-20 -47,-20z" />
                <path class="fil1"
                    d="M821 1032l0 121c11,-11 23,-19 36,-25 13,-6 27,-8 41,-8 32,0 59,12 82,36 22,24 33,55 33,93 0,36 -11,66 -34,91 -24,24 -51,37 -82,37 -15,0 -28,-3 -40,-8 -12,-5 -24,-13 -36,-24l0 25 -61 0 0 -338 61 0zm65 144c-20,0 -36,7 -48,20 -13,13 -20,30 -20,52 0,21 7,39 20,52 12,14 28,21 48,21 18,0 34,-7 47,-21 13,-14 19,-31 19,-52 0,-21 -6,-38 -19,-52 -12,-13 -28,-20 -47,-20zm202 -151c11,0 20,4 28,12 7,8 11,17 11,28 0,11 -4,21 -11,28 -8,8 -17,12 -28,12 -10,0 -20,-4 -28,-12 -7,-8 -11,-17 -11,-29 0,-10 4,-20 11,-27 8,-8 17,-12 28,-12zm-31 101l62 0 0 244 -62 0 0 -244zm118 -94l61 0 0 195 90 -101 77 0 -105 117 118 127 -76 0 -104 -112 0 112 -61 0 0 -338zm511 234l-197 0c3,17 10,31 23,41 12,11 28,16 47,16 23,0 43,-8 59,-24l52 24c-13,18 -29,32 -46,40 -18,9 -40,14 -65,14 -38,0 -69,-13 -93,-37 -24,-24 -36,-54 -36,-91 0,-37 12,-68 36,-92 24,-25 54,-37 90,-37 39,0 70,12 94,37 24,24 36,57 36,97l0 12zm-62 -48c-4,-14 -12,-25 -23,-34 -12,-8 -26,-12 -42,-12 -17,0 -32,4 -45,14 -8,6 -15,17 -22,32l132 0zm119 -182l61 0 0 90 36 0 0 53 -36 0 0 191 -61 0 0 -191 -32 0 0 -53 32 0 0 -90zm245 84c23,0 45,5 65,17 21,12 37,27 48,47 11,20 17,41 17,64 0,23 -6,45 -17,65 -12,20 -27,35 -47,47 -20,11 -42,17 -65,17 -35,0 -65,-13 -90,-38 -25,-25 -37,-55 -37,-91 0,-38 14,-70 42,-95 24,-22 52,-33 84,-33zm1 57c-19,0 -35,7 -47,20 -13,13 -19,30 -19,51 0,21 6,39 19,52 12,13 28,20 47,20 19,0 35,-7 48,-20 12,-14 19,-31 19,-52 0,-21 -6,-38 -19,-51 -12,-13 -28,-20 -48,-20zm179 -51l62 0 0 118c0,23 1,38 5,47 3,9 8,16 15,21 7,5 15,8 25,8 11,0 19,-3 26,-8 7,-5 13,-12 16,-21 3,-7 4,-22 4,-45l0 -120 62 0 0 104c0,42 -4,71 -11,87 -8,19 -20,34 -36,44 -16,11 -36,16 -61,16 -27,0 -49,-6 -65,-18 -17,-12 -28,-29 -35,-50 -5,-15 -7,-42 -7,-81l0 -102zm262 0l52 0 0 31c6,-12 13,-22 23,-28 9,-6 20,-9 31,-9 8,0 16,2 25,6l-19 53c-7,-4 -13,-6 -18,-6 -9,0 -17,6 -24,18 -6,12 -10,34 -10,69l1 12 0 98 -61 0 0 -244zm311 34l-38 38c-16,-15 -30,-23 -42,-23 -7,0 -13,2 -16,4 -4,3 -6,7 -6,11 0,4 1,7 4,10 2,2 8,6 18,11l22 11c24,12 40,24 49,36 9,12 13,26 13,42 0,22 -8,40 -24,55 -16,14 -37,22 -64,22 -35,0 -64,-14 -85,-42l38 -41c7,8 15,15 25,20 10,5 18,8 26,8 8,0 14,-2 19,-6 5,-4 8,-8 8,-13 0,-10 -9,-19 -27,-28l-21 -10c-39,-20 -59,-45 -59,-75 0,-20 7,-36 22,-50 15,-14 34,-20 57,-20 16,0 31,3 45,10 14,7 26,17 36,30z" />
            </g>
            <path class="fil1"
                d="M187 933c50,-165 204,-286 387,-286 182,0 336,121 386,286l77 0c-52,-207 -240,-360 -463,-360 -224,0 -412,153 -464,360l77 0z" />
            <path class="fil0"
                d="M1466 63l183 -17c20,-2 38,7 49,22 11,16 12,36 4,53l-20 43c-12,26 -14,56 -4,83 13,39 30,89 49,143l-580 469 -152 -485c-12,0 -29,-1 -50,-4l54 170 -90 99c10,9 21,17 30,27l74 -81 109 348 48 0 -8 -27 581 -470c11,30 21,61 32,92l-384 405 63 0 339 -357c52,148 106,293 135,357l51 0c-19,-32 -75,-180 -154,-402 0,-4 -2,-8 -4,-11 -30,-86 -64,-183 -100,-287 -6,-17 -5,-34 3,-50l20 -42c15,-33 12,-69 -9,-99 -20,-29 -54,-45 -90,-42l-183 17c-12,1 -22,12 -21,25 2,13 13,22 25,21z" />
            <path class="fil1"
                d="M797 257l0 26c0,0 183,52 206,40 23,-11 195,-74 195,-74 0,0 -34,-46 -57,-46 -19,0 -157,8 -273,-8 -37,-6 -71,24 -71,62z" />
            <path class="fil1"
                d="M2521 933l-77 0c-51,-165 -205,-286 -387,-286 -44,0 -87,7 -127,20 -8,-21 -16,-45 -25,-70 48,-16 99,-24 152,-24 224,0 411,153 464,360z" />
            <path class="fil1"
                d="M1770 668c9,26 18,50 27,74 -59,50 -103,116 -126,191l-78 0c28,-107 91,-200 177,-265z" />
        </g>
    </g>
</svg>