<svg width="10625" height="1893" viewBox="0 0 10625 1893" fill="none" xmlns="http://www.w3.org/2000/svg">
<g clip-path="url(#clip0_242_12)">
<path d="M945.996 1806C1415.62 1806 1806 1416.47 1806 946C1806 476.373 1414.78 86 945.155 86C474.682 86 86 476.373 86 946C86 1416.47 475.528 1806 945.996 1806ZM687.154 532.021H799.292C836.388 532.021 860.839 556.472 860.839 592.727C860.839 628.981 836.388 653.432 799.292 653.432H705.702C666.919 653.432 649.213 671.139 649.213 710.764V801.824C649.213 839.766 624.761 863.372 588.507 863.372C552.253 863.372 527.801 838.92 527.801 801.824V690.529C527.801 585.982 582.604 532.021 687.154 532.021ZM1198.09 532.021C1302.64 532.021 1358.29 585.982 1358.29 690.529V801.824C1358.29 838.92 1333.84 863.372 1296.74 863.372C1260.49 863.372 1236.88 839.766 1236.88 801.824V710.764C1236.88 671.139 1218.33 653.432 1180.39 653.432H1085.96C1049.7 653.432 1024.41 628.981 1024.41 592.727C1024.41 556.472 1049.7 532.021 1085.96 532.021H1198.09ZM687.154 1362.51C582.604 1362.51 527.801 1308.55 527.801 1204V1092.7C527.801 1055.61 552.253 1031.16 588.507 1031.16C624.761 1031.16 649.213 1054.76 649.213 1092.7V1183.77C649.213 1223.39 666.919 1241.1 705.702 1241.1H799.292C836.388 1241.1 860.839 1265.55 860.839 1301.8C860.839 1338.06 836.388 1362.51 799.292 1362.51H687.154ZM1198.09 1362.51H1085.96C1049.7 1362.51 1024.41 1338.06 1024.41 1301.8C1024.41 1265.55 1049.7 1241.1 1085.96 1241.1H1180.39C1218.33 1241.1 1236.88 1223.39 1236.88 1183.77V1092.7C1236.88 1054.76 1260.49 1031.16 1296.74 1031.16C1333.84 1031.16 1358.29 1055.61 1358.29 1092.7V1204C1358.29 1308.55 1302.64 1362.51 1198.09 1362.51Z" fill="#C94536"/>
<path d="M2725.8 455.4C2835.93 455.4 2925.53 478.267 2994.6 524C3064.6 569.733 3099.6 638.333 3099.6 729.8C3099.6 779.267 3089.33 823.133 3068.8 861.4C3048.27 898.733 3020.27 928.133 2984.8 949.6C2915.73 992.533 2834.53 1014 2741.2 1014C2715.07 1014 2691.27 1011.67 2669.8 1007C2659.53 998.6 2654.4 985.533 2654.4 967.8C2654.4 950.067 2658.13 937 2665.6 928.6C2680.53 931.4 2700.13 932.8 2724.4 932.8C2780.4 932.8 2825.67 914.6 2860.2 878.2C2894.73 840.867 2912 789.067 2912 722.8C2912 605.2 2843.4 546.4 2706.2 546.4C2654.87 546.4 2629.2 549.667 2629.2 556.2V1333.2C2629.2 1350.93 2637.6 1364 2654.4 1372.4C2672.13 1379.87 2709 1383.6 2765 1383.6L2783.2 1459.2C2671.2 1456.4 2587.67 1455 2532.6 1455C2477.53 1455 2414.07 1456.4 2342.2 1459.2L2325.4 1383.6C2370.2 1382.67 2399.6 1378 2413.6 1369.6C2428.53 1361.2 2436 1349.07 2436 1333.2V582.8C2436 566 2429.47 553.4 2416.4 545C2404.27 536.6 2379.53 532.4 2342.2 532.4L2324 456.8C2447.2 459.6 2512.53 461 2520 461C2638.53 457.267 2707.13 455.4 2725.8 455.4ZM3358.09 423.2V911.8C3429.02 874.467 3480.82 851.133 3513.49 841.8C3546.15 832.467 3574.15 827.8 3597.49 827.8C3651.62 827.8 3695.49 847.4 3729.09 886.6C3762.69 925.8 3779.49 982.733 3779.49 1057.4V1348.6C3779.49 1363.53 3784.62 1374.73 3794.89 1382.2C3806.09 1388.73 3828.49 1392 3862.09 1392L3877.49 1459.2C3779.49 1456.4 3711.35 1455 3673.09 1455C3634.82 1455 3584.42 1456.4 3521.89 1459.2L3507.89 1392C3546.15 1391.07 3571.82 1387.33 3584.89 1380.8C3598.89 1373.33 3605.89 1362.6 3605.89 1348.6V1099.4C3605.89 1049.93 3597.49 1013.53 3580.69 990.2C3564.82 965.933 3536.35 953.8 3495.29 953.8C3454.22 953.8 3408.49 964.533 3358.09 986V1348.6C3358.09 1377.53 3387.95 1392 3447.69 1392L3463.09 1459.2C3365.09 1456.4 3296.95 1455 3258.69 1455C3220.42 1455 3170.02 1456.4 3107.49 1459.2L3093.49 1392C3131.75 1391.07 3157.42 1387.33 3170.49 1380.8C3184.49 1373.33 3191.49 1362.6 3191.49 1348.6V588.4C3191.49 553.867 3185.89 531.933 3174.69 522.6C3163.49 513.267 3150.42 508.6 3135.49 508.6C3121.49 508.6 3109.82 509.067 3100.49 510L3082.29 456.8C3167.22 435.333 3245.15 410.6 3316.09 382.6C3333.82 382.6 3345.02 386.333 3349.69 393.8C3355.29 400.333 3358.09 410.133 3358.09 423.2ZM4062.84 1137.2C4062.84 1200.67 4077.31 1258.07 4106.24 1309.4C4136.11 1359.8 4178.11 1385 4232.24 1385C4286.38 1385 4325.11 1364 4348.44 1322C4372.71 1279.07 4384.84 1225.4 4384.84 1161C4384.84 1096.6 4370.38 1039.2 4341.44 988.8C4313.44 937.467 4271.44 911.8 4215.44 911.8C4160.38 911.8 4121.18 933.733 4097.84 977.6C4074.51 1020.53 4062.84 1073.73 4062.84 1137.2ZM4221.04 1471.8C4121.18 1471.8 4039.51 1444.73 3976.04 1390.6C3912.58 1335.53 3880.84 1259.93 3880.84 1163.8C3880.84 1067.67 3913.51 987.867 3978.84 924.4C4044.18 860 4126.31 827.8 4225.24 827.8C4325.11 827.8 4406.78 856.733 4470.24 914.6C4534.64 971.533 4566.84 1048.53 4566.84 1145.6C4566.84 1242.67 4534.18 1321.53 4468.84 1382.2C4403.51 1441.93 4320.91 1471.8 4221.04 1471.8ZM4822.44 1252C4822.44 1289.33 4829.44 1318.73 4843.44 1340.2C4858.38 1361.67 4877.51 1372.4 4900.84 1372.4C4924.18 1372.4 4951.71 1360.27 4983.44 1336C4990.91 1330.4 4996.51 1329.93 5000.24 1334.6L5028.24 1372.4C5003.98 1395.73 4984.84 1413 4970.84 1424.2C4930.71 1455 4883.11 1470.4 4828.04 1470.4C4772.98 1470.4 4728.64 1452.2 4695.04 1415.8C4662.38 1378.47 4646.04 1336.93 4646.04 1291.2V941.2H4576.04L4569.04 889.4C4620.38 872.6 4659.11 850.2 4685.24 822.2C4712.31 793.267 4737.51 755.467 4760.84 708.8H4794.44C4803.78 708.8 4809.84 710.667 4812.64 714.4C4815.44 718.133 4816.84 724.667 4816.84 734L4822.44 853H5000.24C5002.11 861.4 5003.04 873.067 5003.04 888C5003.04 902.933 4996.98 920.667 4984.84 941.2H4823.84L4822.44 1252ZM5210.73 1137.2C5210.73 1200.67 5225.2 1258.07 5254.13 1309.4C5284 1359.8 5326 1385 5380.13 1385C5434.27 1385 5473 1364 5496.33 1322C5520.6 1279.07 5532.73 1225.4 5532.73 1161C5532.73 1096.6 5518.27 1039.2 5489.33 988.8C5461.33 937.467 5419.33 911.8 5363.33 911.8C5308.27 911.8 5269.07 933.733 5245.73 977.6C5222.4 1020.53 5210.73 1073.73 5210.73 1137.2ZM5368.93 1471.8C5269.07 1471.8 5187.4 1444.73 5123.93 1390.6C5060.47 1335.53 5028.73 1259.93 5028.73 1163.8C5028.73 1067.67 5061.4 987.867 5126.73 924.4C5192.07 860 5274.2 827.8 5373.13 827.8C5473 827.8 5554.67 856.733 5618.13 914.6C5682.53 971.533 5714.73 1048.53 5714.73 1145.6C5714.73 1242.67 5682.07 1321.53 5616.73 1382.2C5551.4 1441.93 5468.8 1471.8 5368.93 1471.8ZM6344.47 455.4C6454.61 455.4 6544.21 478.267 6613.27 524C6683.27 569.733 6718.27 638.333 6718.27 729.8C6718.27 779.267 6708.01 823.133 6687.47 861.4C6666.94 898.733 6638.94 928.133 6603.47 949.6C6534.41 992.533 6453.21 1014 6359.87 1014C6333.74 1014 6309.94 1011.67 6288.47 1007C6278.21 998.6 6273.07 985.533 6273.07 967.8C6273.07 950.067 6276.81 937 6284.27 928.6C6299.21 931.4 6318.81 932.8 6343.07 932.8C6399.07 932.8 6444.34 914.6 6478.87 878.2C6513.41 840.867 6530.67 789.067 6530.67 722.8C6530.67 605.2 6462.07 546.4 6324.87 546.4C6273.54 546.4 6247.87 549.667 6247.87 556.2V1333.2C6247.87 1350.93 6256.27 1364 6273.07 1372.4C6290.81 1379.87 6327.67 1383.6 6383.67 1383.6L6401.87 1459.2C6289.87 1456.4 6206.34 1455 6151.27 1455C6096.21 1455 6032.74 1456.4 5960.87 1459.2L5944.07 1383.6C5988.87 1382.67 6018.27 1378 6032.27 1369.6C6047.21 1361.2 6054.67 1349.07 6054.67 1333.2V582.8C6054.67 566 6048.14 553.4 6035.07 545C6022.94 536.6 5998.21 532.4 5960.87 532.4L5942.67 456.8C6065.87 459.6 6131.21 461 6138.67 461C6257.21 457.267 6325.81 455.4 6344.47 455.4ZM6797.22 1137.2C6797.22 1200.67 6811.69 1258.07 6840.62 1309.4C6870.49 1359.8 6912.49 1385 6966.62 1385C7020.75 1385 7059.49 1364 7082.82 1322C7107.09 1279.07 7119.22 1225.4 7119.22 1161C7119.22 1096.6 7104.75 1039.2 7075.82 988.8C7047.82 937.467 7005.82 911.8 6949.82 911.8C6894.75 911.8 6855.55 933.733 6832.22 977.6C6808.89 1020.53 6797.22 1073.73 6797.22 1137.2ZM6955.42 1471.8C6855.55 1471.8 6773.89 1444.73 6710.42 1390.6C6646.95 1335.53 6615.22 1259.93 6615.22 1163.8C6615.22 1067.67 6647.89 987.867 6713.22 924.4C6778.55 860 6860.69 827.8 6959.62 827.8C7059.49 827.8 7141.15 856.733 7204.62 914.6C7269.02 971.533 7301.22 1048.53 7301.22 1145.6C7301.22 1242.67 7268.55 1321.53 7203.22 1382.2C7137.89 1441.93 7055.29 1471.8 6955.42 1471.8ZM7726.22 827.8C7783.15 827.8 7821.88 841.8 7842.42 869.8C7842.42 881.933 7836.35 898.733 7824.22 920.2C7813.02 941.667 7801.35 960.333 7789.22 976.2C7777.08 992.067 7769.62 1000 7766.82 1000L7649.22 956.6H7643.62C7625.88 958.467 7610.95 969.667 7598.82 990.2C7587.62 1009.8 7582.02 1035 7582.02 1065.8V1348.6C7582.02 1363.53 7589.02 1374.73 7603.02 1382.2C7617.02 1388.73 7646.88 1392 7692.62 1392L7708.02 1459.2C7610.02 1456.4 7537.22 1455 7489.62 1455C7442.95 1455 7388.35 1456.4 7325.82 1459.2L7311.82 1392C7350.08 1391.07 7375.75 1387.33 7388.82 1380.8C7401.88 1373.33 7408.42 1362.6 7408.42 1348.6V1012.6C7408.42 990.2 7403.28 974.8 7393.02 966.4C7382.75 957.067 7369.68 952.4 7353.82 952.4C7338.88 952.4 7327.68 952.867 7320.22 953.8L7300.62 896.4C7358.48 882.4 7436.88 855.8 7535.82 816.6C7550.75 816.6 7558.68 822.2 7559.62 833.4C7561.48 844.6 7562.88 860.933 7563.82 882.4C7565.68 903.867 7567.08 918.333 7568.02 925.8C7581.08 906.2 7603.48 885.2 7635.22 862.8C7666.95 839.467 7697.28 827.8 7726.22 827.8ZM8054.2 1252C8054.2 1289.33 8061.2 1318.73 8075.2 1340.2C8090.13 1361.67 8109.27 1372.4 8132.6 1372.4C8155.93 1372.4 8183.47 1360.27 8215.2 1336C8222.67 1330.4 8228.27 1329.93 8232 1334.6L8260 1372.4C8235.73 1395.73 8216.6 1413 8202.6 1424.2C8162.47 1455 8114.87 1470.4 8059.8 1470.4C8004.73 1470.4 7960.4 1452.2 7926.8 1415.8C7894.13 1378.47 7877.8 1336.93 7877.8 1291.2V941.2H7807.8L7800.8 889.4C7852.13 872.6 7890.87 850.2 7917 822.2C7944.07 793.267 7969.27 755.467 7992.6 708.8H8026.2C8035.53 708.8 8041.6 710.667 8044.4 714.4C8047.2 718.133 8048.6 724.667 8048.6 734L8054.2 853H8232C8233.87 861.4 8234.8 873.067 8234.8 888C8234.8 902.933 8228.73 920.667 8216.6 941.2H8055.6L8054.2 1252ZM8638.49 848.8L8763.09 853C8800.43 853 8841.49 850.2 8886.29 844.6V1296.8C8886.29 1329.47 8889.09 1348.13 8894.69 1352.8C8901.23 1357.47 8909.63 1359.8 8919.89 1359.8H8940.89L8970.29 1358.4L8982.89 1431.2C8916.63 1434.93 8842.89 1448.47 8761.69 1471.8C8743.96 1471.8 8735.09 1466.67 8735.09 1456.4L8726.69 1393.4C8648.29 1445.67 8584.36 1471.8 8534.89 1471.8C8388.36 1471.8 8315.09 1399.47 8315.09 1254.8L8316.49 959.4C8316.49 951 8315.56 944.467 8313.69 939.8C8312.76 934.2 8307.63 929.067 8298.29 924.4C8288.96 918.8 8275.43 916 8257.69 916L8242.29 848.8L8366.89 853C8404.23 853 8445.29 850.2 8490.09 844.6V1210C8490.09 1300.53 8526.49 1345.8 8599.29 1345.8C8644.09 1345.8 8681.89 1332.73 8712.69 1306.6V959.4C8712.69 951 8711.76 944.467 8709.89 939.8C8708.96 934.2 8703.83 929.067 8694.49 924.4C8685.16 918.8 8671.63 916 8653.89 916L8638.49 848.8ZM9172.46 1043.4C9172.46 1083.53 9183.66 1118.53 9206.06 1148.4C9229.39 1177.33 9258.33 1191.8 9292.86 1191.8C9327.39 1191.8 9353.53 1177.8 9371.26 1149.8C9389.93 1121.8 9399.26 1088.67 9399.26 1050.4C9399.26 1011.2 9388.06 977.6 9365.66 949.6C9344.19 921.6 9315.26 907.6 9278.86 907.6C9242.46 907.6 9215.39 920.2 9197.66 945.4C9180.86 970.6 9172.46 1003.27 9172.46 1043.4ZM9546.26 1043.4C9546.26 1115.27 9520.59 1173.6 9469.26 1218.4C9418.86 1263.2 9356.33 1285.6 9281.66 1285.6H9218.66C9189.73 1293.07 9175.26 1304.27 9175.26 1319.2C9175.26 1334.13 9191.59 1344.4 9224.26 1350C9252.26 1358.4 9300.33 1364.93 9368.46 1369.6C9451.53 1378 9503.79 1386.4 9525.26 1394.8C9594.33 1420.93 9628.86 1471.8 9628.86 1547.4C9628.86 1623.93 9591.53 1689.73 9516.86 1744.8C9442.19 1800.8 9358.66 1828.8 9266.26 1828.8C9174.79 1828.8 9101.06 1812.47 9045.06 1779.8C8989.99 1748.07 8962.46 1696.73 8962.46 1625.8C8962.46 1596.87 8972.26 1572.6 8991.86 1553C8999.33 1545.53 9039.46 1517.53 9112.26 1469C9091.73 1459.67 9072.59 1444.27 9054.86 1422.8C9038.06 1400.4 9029.66 1381.73 9029.66 1366.8C9029.66 1351.87 9033.39 1340.67 9040.86 1333.2C9048.33 1325.73 9069.33 1311.73 9103.86 1291.2C9139.33 1269.73 9157.53 1258.53 9158.46 1257.6C9121.13 1244.53 9088.46 1220.27 9060.46 1184.8C9033.39 1148.4 9019.86 1108.27 9019.86 1064.4C9019.86 999.067 9043.19 943.533 9089.86 897.8C9137.46 851.133 9199.53 827.8 9276.06 827.8C9298.46 827.8 9337.19 832 9392.26 840.4C9447.33 847.867 9497.73 851.6 9543.46 851.6C9590.13 851.6 9622.33 850.2 9640.06 847.4C9640.06 850.2 9640.06 855.333 9640.06 862.8C9640.06 903.867 9633.53 936.067 9620.46 959.4L9500.06 937C9513.13 944.467 9523.86 959.867 9532.26 983.2C9541.59 1005.6 9546.26 1025.67 9546.26 1043.4ZM9292.86 1739.2C9344.19 1739.2 9383.86 1726.6 9411.86 1701.4C9440.79 1676.2 9455.26 1644.47 9455.26 1606.2C9455.26 1532.47 9382.93 1495.6 9238.26 1495.6C9221.46 1495.6 9207.46 1498.87 9196.26 1505.4C9151.46 1534.33 9129.06 1572.6 9129.06 1620.2C9129.06 1656.6 9143.53 1685.53 9172.46 1707C9202.33 1728.47 9242.46 1739.2 9292.86 1739.2ZM9952.81 1198.8C9894.01 1210.93 9853.87 1225.4 9832.41 1242.2C9810.94 1258.07 9800.21 1277.2 9800.21 1299.6C9800.21 1321.07 9807.67 1338.33 9822.61 1351.4C9838.47 1364.47 9859.01 1371 9884.21 1371C9909.41 1371 9933.21 1360.73 9955.61 1340.2L9952.81 1198.8ZM10214.6 1358.4L10225.8 1415.8C10209.9 1422.33 10176.8 1433.53 10126.4 1449.4C10076.9 1464.33 10046.1 1471.8 10034 1471.8C10021.9 1471.8 10013 1470.4 10007.4 1467.6C10001.8 1464.8 9996.67 1459.67 9992.01 1452.2C9987.34 1444.73 9984.07 1439.13 9982.21 1435.4C9980.34 1430.73 9977.54 1422.8 9973.81 1411.6C9970.07 1399.47 9967.74 1392 9966.81 1389.2C9916.41 1444.27 9859.01 1471.8 9794.61 1471.8C9752.61 1471.8 9717.14 1458.73 9688.21 1432.6C9659.27 1405.53 9644.81 1372.4 9644.81 1333.2C9644.81 1280 9665.81 1240.8 9707.81 1215.6C9750.74 1189.47 9831.01 1163.8 9948.61 1138.6V1088.2C9948.61 1034.07 9942.54 993.933 9930.41 967.8C9918.27 940.733 9896.81 927.2 9866.01 927.2C9836.14 927.2 9812.81 931.867 9796.01 941.2V1030.8C9796.01 1036.4 9781.07 1042 9751.21 1047.6C9721.34 1053.2 9699.41 1056 9685.41 1056C9671.41 1056 9664.41 1039.2 9664.41 1005.6C9664.41 989.733 9667.21 972.933 9672.81 955.2C9678.41 937.467 9684.47 924.867 9691.01 917.4C9707.81 898.733 9743.74 879.133 9798.81 858.6C9854.81 838.067 9897.27 827.8 9926.21 827.8C9986.87 827.8 10034 846.467 10067.6 883.8C10102.1 921.133 10119.4 976.2 10119.4 1049V1333.2C10119.4 1350.93 10126.9 1359.8 10141.8 1359.8L10179.6 1358.4H10214.6ZM10484.9 423.2V1348.6C10484.9 1363.53 10490 1374.73 10500.3 1382.2C10511.5 1388.73 10533.9 1392 10567.5 1392L10582.9 1459.2C10484.9 1456.4 10416.7 1455 10378.5 1455C10340.2 1455 10289.8 1456.4 10227.3 1459.2L10213.3 1392C10251.5 1391.07 10277.2 1387.33 10290.3 1380.8C10304.3 1373.33 10311.3 1362.6 10311.3 1348.6V588.4C10311.3 553.867 10305.7 531.933 10294.5 522.6C10283.3 513.267 10270.2 508.6 10255.3 508.6C10241.3 508.6 10229.6 509.067 10220.3 510L10202.1 456.8C10301 431.6 10381.3 406.867 10442.9 382.6C10460.6 382.6 10471.8 386.333 10476.5 393.8C10482.1 400.333 10484.9 410.133 10484.9 423.2Z" fill="#C94536"/>
</g>
<defs>
<clipPath id="clip0_242_12">
<rect width="10625" height="1893" fill="white"/>
</clipPath>
</defs>
</svg>
