<svg xmlns="http://www.w3.org/2000/svg" viewBox="820 25 120 260" preserveAspectRatio="xMidYMid meet"><g><path d="M917.6 188.7l-1.6 1.4-0.1 0.2-0.3 0.6-0.1 0.3-0.3 1.6-0.1 1 0.1 0.5 0 0.4 0.2 0.3 0.2 0.1 0.2 0.2 0.2 0.3-0.2 0.7-1.6 2.2-0.6 2.3-0.4 0.6 0.5 0.6-0.1 0.5-0.3 0.5-0.6 0.6 0.5 0.2 1.1 0.8 3.8 4.9 0.2 0.3 0.2 0.6 0.1 0.3 0.3 0.3 0.6 0.4 0.2 0.2 1.5 3.8 0.3 0.3-0.1 0.1-0.3 0.2-0.3 0.1-0.6-0.1-0.4-0.3-0.3-0.3-0.3-0.7-0.1-0.3-0.4-0.9-0.1-0.4-0.1-0.3-0.2-0.2-0.9-0.4-0.8-0.8-0.1-0.3-0.1-0.3-0.1-0.4-0.1-0.3-0.2-0.3-0.2-0.2 0-0.1-0.1-0.3 0-0.1-0.1-0.2-0.3 0-0.3 0-0.9 0.4-0.2 0-0.3 0.1-1.2 0.6-1.2 0.4 0 0.3 0 0.3-0.2 0.4-0.3 0.4-0.3 0.3-0.2 0.2-0.5 0.3-0.1 0.2-1 0.5-0.6 0.7-0.5 0.7-0.1 0.3-0.4 0.1-1.6 0-0.8-0.3-0.7-0.1-2.4-0.1-0.5-0.1-2.3-1.3-1-0.4-1.8-0.2-3.1-1.4-0.8-1-1.1-0.4-0.3-0.1-0.4 0-0.8 0.4-0.3 0-0.3-0.1-0.4-0.3-0.4-0.5-0.2 0-0.5-0.1-0.8 0.1-2.7-0.1-0.2 0.4-1.3-1-0.7-0.3-0.3 0-0.4 0-0.3-0.1-0.8-0.5-0.5-0.4-0.7-0.3-0.3-0.1 0-0.4 0.6-1 0.2-0.8-0.2-0.4-0.3-0.2-0.5-0.2-0.2-0.3 0-0.2 0.2-0.2 0-0.3-0.5-1.2 0-0.3-0.1-0.2-0.2-0.3-0.4-0.5-0.7-0.9-0.4-0.1-0.6 0.1-0.9 0.6-0.5 0.2-1 0-0.5-0.2-0.3-0.2-0.2-0.2-0.1-0.3-0.3-0.1-0.3-0.1-0.2 0.2 0.1 0.2 0.1 0.3-0.1 0.3-0.2 0.1-0.9-0.3-1-0.1-1.4-0.9-1.1-0.1-0.2-1.2-0.1-0.3-0.2-0.3 0-0.5 0-0.3 1.3-1.7 3-2.1 0.6-0.7 0.3-0.5 0.1-0.6-0.1-0.3 0.4-0.7-0.1-0.5-0.2-0.1-1.5-0.3 1.7-1.5 1.6-0.3 0.4-0.3 0.8-0.7 0.3-0.1 0.5 0 0.2-0.1 0.2-0.1 0.2-0.1 0.2-0.3 0-0.3 0.1-0.2 0.3 0 0.6 0.2 0.5 0.1 0.4-0.2 0.3 0 0.2 0.1 0.2-0.2 0.1-0.2 0.2-0.2 0.2 0 0.3 0.2 0.9 1 0.3 0.3 1.2 0.2 0.4 0.1 0.2 0.3 0.1 0.3 0.1 0.2 0.1 0.2 0.2 0.1 0.2-0.1 0.2 0.1 0.2 0.6 0.1 0.2 0.6 0.4 0.6-0.6 0.2-0.7 0-0.4-0.2-0.3-0.4-0.1-0.2 0-0.6-0.7-0.3-0.4 0.1-0.3 0.2-0.8-0.2-0.4-0.2-0.1-0.4-0.1-1.9-0.8-0.3-0.2-0.2-0.3-0.1-0.3 0.1-0.3 0.2-0.3 0.2-0.3 0.2-0.4 0.1-0.5 0-0.7 0.1-0.5 0.2-0.3 0.1 0 0.5 0 0.3-0.2 0.3-0.6 0.7-0.6 0.6-0.3 0.3-0.2 0.2 0 1-0.1 0.6 0.2 0 0.3-0.1 0.3-0.1 0.6 0.1 0.6 0.3 0.3 0.2-0.1 0.1-0.3 0-0.3 0-0.2 0.1-0.1 0-0.1 0.4-0.1 0.6-0.1 0.3 0.1 0.2 0.1 0.8 0.9 0.1 0.4 0.1 0.7-0.1 0.5 0.2 0.1 0.9 0.1 0.3-0.1 0.3-0.1 0.2-0.2 0.2-0.3 0.6-0.4 0.8-0.2 0.4 0.4 1.6 2.2 1.1 0.7 0.3 0.1 0.5 0 0.3-0.1 0.7 0.1 1.2-0.5 0.3-0.3 0.6-0.8 0.3 0.1 0.6 0.3 0.3 0.1 0.3-0.2 0.4 0 0.3 0.1 0.8 0.3 0.3-0.1 0.2-0.1 0.2-0.1 0.2-0.4 0.2-0.3 0.5-0.5 0.5-0.1 0.8-0.2 0.5-0.2 0.4-0.3 0.1-0.3 0-0.3-0.1-0.2-0.2-0.4 0.4-0.4 0.2 0.1 0.1-0.1 0.1 0 0.1 0.5 1.5 0.6 0.6 0.6 0.2 0.4 0.1 0.8 0.1 0.3 0 0.5 0.8 0.7 0.3 0.9 0.1 0.7 0.5 0.7-0.2 0.7 0.2 0.4 0.5 0.9 0.3 0.3 0.6 0.3 0.6 0 0.2 0.1 0.5-0.2 0.8-0.8 0.7-0.7 1.1-0.3 0.7 0 0.4 0.2 0.4 0.2 0.2 0.4 0 0.6-0.1 0.3-0.5 0.8-0.1 0.3 0 0.4 0.3 0.3z" id="PT07" />
<path d="M917.6 188.7l-0.3-0.3 0-0.4 0.1-0.3 0.5-0.8 0.1-0.3 0-0.6-0.2-0.4-0.4-0.2-0.4-0.2-0.7 0-1.1 0.3-0.7 0.7-0.8 0.8-0.5 0.2-0.2-0.1-0.6 0-0.6-0.3-0.3-0.3-0.5-0.9-0.2-0.4 0.2-0.7-0.5-0.7-0.1-0.7-0.3-0.9-0.8-0.7 0-0.5-0.1-0.3-0.1-0.8-0.2-0.4-0.6-0.6-1.5-0.6-0.1-0.5-0.1 0-0.1 0.1-0.2-0.1-0.4 0.4 0.2 0.4 0.1 0.2 0 0.3-0.1 0.3-0.4 0.3-0.5 0.2-0.8 0.2-0.5 0.1-0.5 0.5-0.2 0.3-0.2 0.4-0.2 0.1-0.2 0.1-0.3 0.1-0.8-0.3-0.3-0.1-0.4 0-0.3 0.2-0.3-0.1-0.6-0.3-0.3-0.1-0.6 0.8-0.3 0.3-1.2 0.5-0.7-0.1-0.3 0.1-0.5 0-0.3-0.1-1.1-0.7-1.6-2.2-0.4-0.4-0.8 0.2-0.6 0.4-0.2 0.3-0.2 0.2-0.3 0.1-0.3 0.1-0.9-0.1-0.2-0.1 0.1-0.5-0.1-0.7-0.1-0.4-0.8-0.9-0.2-0.1-0.3-0.1-0.6 0.1-0.4 0.1 0 0.1-0.1 0.1 0 0.2 0 0.3-0.1 0.3-0.2 0.1-0.3-0.3-0.1-0.6 0.1-0.6 0.1-0.3 0-0.3-0.6-0.2-1 0.1-0.2 0-0.3 0.2-0.6 0.3-0.7 0.6-1.6-0.5-0.5-0.4-0.1-0.4-0.1-0.3-0.3-0.5-0.4-0.4-0.2-0.3-0.1-0.4-0.1-0.5-0.4-0.3-0.3-0.3-0.9-0.3 0-0.8 1.1-1.7 0.5-0.5 2-1.4 2.1-2 0.9-0.7 0.4-1 0.4-0.5 0.4-0.1 0.7 0.2 0.5-0.2 0.3-0.2 0.1-0.2 0.2-0.3 0.8-1 0.6-0.8 0.1-0.3 0.1-0.7 0.3-0.2 1.7-1.2 0.8-1.2-0.1-0.2-0.2-0.4-0.5-0.4-1.5-1.5 0.8-2 0.8-1.2 0.6-0.6 0.5-0.2 0.7 0.2 1.5 0.8 0.5 0.5 0 0.1 0.2-0.1 0.2-0.1 0.7-0.9 0.2-0.2 0.8-0.4 0.5-0.6 0.5-0.7 0.6-0.7 0.7-0.3 0.3-0.3 0.3-0.7 0.5-0.8 0.6-0.4 0.8 0 0.6 0.4 0.6 0.1 0.8-0.7 0.5-0.4 0.6-0.5 0.7-0.2 0.4 0.1 0.3 0.7 1.2 3.2 0.6 0.6 1.1 1.5 0.6 0.6 1.2 0.6 0.3 0.4 0.4 1 0.5 0.5 0.8 0.4 1.5 0.4 0.3 0.4 0 1.1-0.2 1-0.3 0.7-0.2 0.7 0 1 0.2 1 0.3 0.5 0.7 0.6 1.8 2.2-0.5 0.9-0.1 0.9 0.3 1 0.5 0.7 0.9 0.5 1 0.3 0.9 0.4 0.4 0.9-0.1 0.5-0.4 0.9 0.1 0.4 0.4 0.3 0.5 0.3 0.5 0.1 0.5-0.2 0.9-0.5 0.9-0.1 1 0.3 0.8 0.5 0.6 0.6 0.5 0.8 0.2 1-0.2 0.8 0.4 0.3 0 0.4-0.2 0.5-0.3 0.4-1.2 2.4-0.9 1.1-0.7 0.7 0.5 0.9-0.2 0.7 0 0.7-0.3 0.2-0.4 0.4-0.5 0.4-0.5 0.3-1.7 0.4-0.4 0.3-0.2 0.4-0.5 0.6-0.6 0.5-0.5 0.2-0.5 0.4z" id="PT12" />
<path d="M883 43.9l-0.1 0.1-0.5 0-3.4 1.9-0.9 0.3-3.2 0.1-0.5 0.2-0.5 0.2-0.3 0.2-0.6 0.5-0.7 0.3-0.2-0.1-0.3 0-0.3 0-0.2 0.2-0.3 0.3-0.1 0.3-0.1 0.4-0.1 0.8 0 0.3-0.1 0.3-0.4 0.4-0.1 0.3-0.1 0.3 0.1 0.5-0.6 1.2-0.2-0.1-0.4-0.1-0.4-0.2-0.7-0.1-1.1-0.4-0.3-0.2-0.1 0.1-0.2 0.2-0.2 0.3-0.4 0-1.8 0.1-2.7 1-0.3 0-0.7-0.1-0.2 0 0-0.6-0.3-0.9-0.1-1.1 0.1-0.6 0.8-0.3 2.3-0.4 0.6-0.2 0.6-0.5 0.5-0.5-4 1.2-0.9 0.2-0.4-0.1-0.7-0.4-0.7-1.6 0-1.4 0.3-2.2-0.2-1.4 0.1-0.5 0.3-0.4 2.5-2.2 1.3-1.4 0.4-1.8 0.4-0.3 0.8-0.4 1-0.3 0.7-0.5 0.3-0.5 0.4-1 0.3-0.5 0.6-0.5 0.6-0.1 1.3-0.1 0.7-0.2 1.3-0.9 0.6-0.3 5.6-0.9 0.7-0.3 0.9-0.8 0.3-0.2 0.3-0.1 0.6 0 0.7-0.3 1.1-0.8 0.3 0.5 0.3 0.7-0.1 2.1 0.1 0.8 0.5 0.4 0.5-0.2 0.7-0.3 0.7-0.1 0.7 0.3 0.6 0.6 0.3 0.7-0.1 0.9-0.4 0.6-0.6 0.5-1 0.6-1.1 1.1-1.4 2.1-0.3 0.8-0.1 1 0.4 0.8 1.3 0.5 0.3 0.4 0.1 0.7-0.2 1.1z" id="PT16" />
<path d="M905.6 146.1l-0.4-0.1-0.7 0.2-0.6 0.5-0.5 0.4-0.8 0.7-0.6-0.1-0.6-0.4-0.8 0-0.6 0.4-0.5 0.8-0.3 0.7-0.3 0.3-0.7 0.3-0.6 0.7-0.5 0.7-0.5 0.6-0.3-0.5-0.3-0.8-0.2-0.4-0.7-1.2-0.8-0.8-0.6-0.5-0.6-0.4-0.7-0.3-0.4 0-0.4-0.1-0.3-0.2-0.1-0.4 0.1-0.7-0.1-0.7 0-0.3 0-0.4-0.1-0.3-0.1-0.3-0.2-0.2-0.9-0.1-1.2-0.4-0.7 0.2-0.2 0.3-0.4 2.4-0.3 0.5-0.2 0.6 0.1 0.5 0.2 0.8 0.1 0.3 0 0.2-0.8 0.3-1.3 0.1-0.7 0-1-0.6-2-0.8-0.3-0.6-0.1-1.7 0-0.9 0.2-0.5-0.1-0.8 0.1-0.2 0-0.3-0.1-0.2-0.1-0.3-0.2-0.2-0.4-0.2-0.5-0.2-0.4-0.2-0.2-0.7-0.2-0.6 0-0.2 0.3-0.4 0.2-0.2 0-0.3 0-0.2 0.2-0.3 0.2-0.2 1.6-0.5 0.4 0.1 0.2-0.2 0.3-0.4 0.3-0.4 0.3-0.2 0.3 0 0.4-0.3 0.3-0.3 0.7-1.4 0.6-0.6 0.1-0.3 0.3-0.2 0.1 0 0.5-0.1 0.4-0.5 0.8-0.2 0.6 0 0.2-0.2 0-0.2 0.1-0.3 0.2 0 0.5-0.1 0.2-0.2 0.2-0.1 0.3-0.1 0.2 0.1 0.3 0.1 0.1 0 0.2-0.1 0.5-0.7 0.2-0.2 0.3 0 0.7 0 0.4-0.3 0-0.2-0.1-0.7 0.1-0.4 0.4-0.4 0.9-0.5 0.5-0.1 0.4 0 0.4 0.1 0.3 0.2 0.7 0.5 0.1-0.9-0.1-0.8 0.2-0.3 0.2-0.1 0.2 0.1 0 0.1 0.2 0.2 0.2 0.1 0.4-0.1 0.7-0.5 0.3-0.3 0.2-0.3 0-0.2 0-0.3-0.1-0.3-0.1-0.5-1-0.7-0.6-0.8-0.4-0.3-0.2-0.3-0.2-0.6 0.1-0.4 0.8-1.8 0.7-0.3 0.6-0.1 0.5-0.2 1.3-1 1-0.4 0.9-0.6 0.8-0.9 0.7-1 0.9 0.3 1.3-0.2 0.3-0.3 0.3-0.3 0.2-0.7 0.1-0.3 0.5-0.9 1.8-1.7 1.4 1.1 0.9 0.3 0.4 0 1.2-0.4 0.7-0.9 0.3 0 0.4-0.1 0.6-0.1 0.3 0 0.4 0.2-0.3 2.8-0.4 1.3-0.3 0.4-0.3 0.3-0.4 0.5-0.1 0.4 0.1 0.2 0.1 0.2 0.2 0.1 0.3 0.1 0.3 0.1 0.8 0.2 0.9 0.2 1.7-0.6 1.7 0 0.5-0.2 0.2-0.2 0.1-0.4 0.2-0.4 0.2-0.3 0.4-0.4 0.2 0.1 0.2 0.2 0.2 0.4 0.3 0.6 0.3 0.3 0.9 0.2 0.8-0.1 0.6-0.1 0.3 0 0.3 0 0.9 0.5 0.5 0.4 0.4 0.4 0.1 0.2 0.1 0-0.5 0.1-1.6 1-0.6 0.3-0.3 0.4-0.4 1.1-0.3 0.6 0.3 0.7 0.3 1.6 0.4 0.6 0.4 0.2 1 0.1 0.4 0.2 0.4 0.3 0.5 0.8 0.8 1 1.4 2.6-0.6 1.1-0.2 0.5 0.1 0.5-0.1 0.4-0.3 1.2-0.1 0.2-0.3 0.2-0.1 0.3 0 0.2 0.1 0.5 0 0.2-0.1 0.5 0 0.7-0.1 0.5-0.9 1.4-0.4 0.2-0.8 0.3-0.3 0.3-0.2 0.6 0 0.5 0.2 0.4 0 0.4-0.1 0.5-0.5 0.8-0.1 0.4 0 0.4 0.1 0.4 0 0.3-0.4 1-0.5 0.2-5.4 0.7-1.1 0-0.8-0.5-0.6 0.2-1.5-0.1-0.6 0.2-0.6 0.2-0.5 0.2-7.8-0.4 0 0.1z" id="PT05" />
<path d="M927.9 118.8l-0.1 0-0.1-0.2-0.4-0.4-0.5-0.4-0.9-0.5-0.3 0-0.3 0-0.6 0.1-0.8 0.1-0.9-0.2-0.3-0.3-0.3-0.6-0.2-0.4-0.2-0.2-0.2-0.1-0.4 0.4-0.2 0.3-0.2 0.4-0.1 0.4-0.2 0.2-0.5 0.2-1.7 0-1.7 0.6-0.9-0.2-0.8-0.2-0.3-0.1-0.3-0.1-0.2-0.1-0.1-0.2-0.1-0.2 0.1-0.4 0.4-0.5 0.3-0.3 0.3-0.4 0.4-1.3 0.3-2.8-0.4-0.2-0.3 0-0.6 0.1-0.4 0.1-0.3 0-0.7 0.9-1.2 0.4-0.4 0-0.9-0.3-1.4-1.1-1.8 1.7-0.5 0.9-0.1 0.3-0.2 0.7-0.3 0.3-0.3 0.3-1.3 0.2-0.9-0.3-0.7 1-0.8 0.9-0.9 0.6-1 0.4-1.3 1-0.5 0.2-0.6 0.1-0.7 0.3-0.5-0.9-1-0.5 0.4-1 0.2-0.7 0.2-0.5 0.3-0.4 0.9-0.5 0-0.4-0.1-0.2-0.5-0.5-0.2-0.4-0.3-1.7 0-0.4-0.2-0.2-0.6-0.2-0.3-0.2-0.3-0.4 0.1-0.4 0.3-0.2 0.3-0.1 0.3-0.2 0.2-0.3 0.1-0.4 0-0.4-0.2-0.3-0.3-0.2-0.3-1.1 0.3-0.3 1.1-0.2 0.4-0.1 1-0.7 1-0.4 1.2-0.8 1.5-0.6 2.4-0.4-0.1-1 0.8-2.6 0.5-0.6 0.2-1.2-0.6-0.9-0.8-0.5-0.4-0.7 0.4-0.5 0.1-0.3 0-0.3-0.1-0.3-0.2-0.3-0.9-0.8-0.3-0.3-0.1-0.4 0.2-0.3 0.4-0.6 0.4-0.7 0.4-1.3 0.1-0.2 0.3-0.3 0.4-0.2 0.9 0 0.4 0.2 0.5 0.4 1.3 1.3 0.2 0.2 0.2 0.3 0.6 0.1 0.4-0.6 0.8-1.9 0-0.5-0.1-0.5-0.1-0.3-0.2-0.9 0.5-0.3 1.3 0.4 1.2-1.1 0.3-0.8 0-0.6 0-0.3-0.2-0.3-0.3-0.1-0.4-0.3-0.3-0.2-0.2-0.6-0.1-0.3 0.1-0.2 0.9 0.1 0.5-0.3-0.2-1.3 0.1-0.9 0.3-1.4 1-3.2 2.8-0.2 1.2 0.3 0.7 0 0.3-0.5 1.4-1 0.4-0.1-0.3 1-0.2 0.3 0.1 0.2 0.3 0.2 0.2 0.1 0.3 0.1 0.3 0.1 0 0.4-0.2 0.4 0 0.4 0.2 0.7 0.2 0.6 0.4 0.5 3.2 1.7 1.6 0 0.6 0.2-0.2 0.9-0.4 0.6 0.1 0.6 0.4 0.6 1.1 1.2 0.5 0.9 0.8 1.9 0.3 1 0.3 0.4 0.5 0.2 0.4 0.2 0.2 0.7-0.1 0.6-0.6 0.2-0.1 1.2 0.1 0.3 0.1 0.5 0 0.3-0.1 0.2-0.1 0.5 0 0.9 0.1 0.7 0.4 1.6 0.3 1.6 0.1 0.8 0 0.6-0.3 0.8-0.8 1.6-0.2 0.7 0.1 0.8 0.3 0.5 0.4 0.5 0.4 0.6 0.2 0.8-0.1 0.6-0.9 1.2-0.7 1.7 0.3 1.5 0.8 1.4 1.2 1.2-0.6 1.1-0.3 0.3-1.6 1.2-0.2 0.3-0.2 0.3 0 0.4 0 0.4-0.1 0.3-0.7 0.5-0.7 0-0.7-0.1-0.2 0.1z" id="PT09" />
<path d="M928.4 80.9l-0.6-0.2-1.6 0-3.2-1.7-0.4-0.5-0.2-0.6-0.2-0.7 0-0.4 0.2-0.4 0-0.4-0.3-0.1-0.3-0.1-0.2-0.1-0.3-0.2-0.1-0.2 0.2-0.3 0.3-1-0.4 0.1-1.4 1-0.3 0.5-0.7 0-1.2-0.3-2.8 0.2-1 0.1-1.2-0.4-0.4-0.4-1.1-1.6-0.6-0.4-0.5 0 0.2-0.6 0.1-0.3 0.1-0.2 0.4-0.2 0.5-0.1 0.1-0.1 0-0.2-0.1-0.3 0.1-0.4 0.1-0.7 0.3-0.4 0.4-0.4 0.1-0.2-0.1-0.3 0.1-0.5 0.6-0.7 1.3-0.4-0.9-0.5-0.3-0.4-0.3-0.6-0.2-1 0-2.4 1.2-0.9 0.3-0.1 0.4-0.2 0.3-0.4 0.2-0.8 0.5-0.8 0.3-0.4 0.4-0.2 0.3 0 0.3-0.1 0.3-0.1 0.1-0.3-0.1-0.3-0.1-0.3-0.2-0.3-0.2-0.3-0.1-0.4 0-0.7 0.1-1.3 1.2-4 0.9-1.9 0.3-0.3 0.2-0.1 0.2-0.3 0.1-0.3 0-0.7 0-0.4-0.7-0.9-0.3-0.9-0.1-0.4-0.1-0.9 0.1-1 0.1-0.5-0.3-0.9 0-0.3 0.4-0.6 0.1-0.8-0.3-1.5 0.1-0.7 0.3-0.3 0.5-0.4 0.7-0.4 0.5-0.1 1.2 0.7 1.1 1 1.1 0.5 1.3-0.5 0.8-0.7 0.4 0.2 0.5 0.3 0.9 0.7 1 0.2 2.2-0.2 0.9-0.6 0.2-1.4 1.1 0.2 1.3 2 1.1 0.4 2.6-0.1 1.2-0.4 0.5-1.1 0.9 0.4 0.5 0.6 0.1 0.8-0.3 2.1 0.3 0.4 0.7 0 0.9 0.4-0.4 0.9-0.9 4-0.1 0.4-0.3 0.4-0.2 0.5 0.1 0.4 0.2 0.4 0.2 0.5 0.1 0.9 0.2 0.9 0.5 0.8 1 0.4 0.4-0.1 0.5-0.3 0.5-0.3 0.3-0.3 0.2-0.3 0.5 0.1 2.9 0.6 1.8 0.6 1.6 1.1 1.6 1.6 0.5 0.7 0.3 0.5-1.7 2.5-0.9 1-0.3 0.5 0.1 0.4 0.1 0.3 0 0.4-1.4 2.2 0 0.4-1.2 0.1-0.5 0.2-0.4 0.4 0.1 0 0 0.3 0 0.4-0.1 0.2-0.2 0.1-0.4-0.1-0.2 0-1.1 1.9-1.2 1.2-0.7 0.5-0.5 0.4-2.1 0.9-0.3 0.3-2.4 0-0.6 0.1-0.4 0.5-1.3 1.9-0.3 0.8-0.2 0.4-1.3 1.1-0.5 0.6-0.1 0.3 0.1 1.2-0.3 0.9-1.4 2.1-0.5 0.5-1 0.1-2.3-0.2-0.7 0.4z" id="PT04" />
<path d="M918.2 40.2l0 0.3 0.3 0.9-0.1 0.5-0.1 1 0.1 0.9 0.1 0.4 0.3 0.9 0.7 0.9 0 0.4 0 0.7-0.1 0.3-0.2 0.3-0.2 0.1-0.3 0.3-0.9 1.9-1.2 4-0.1 1.3 0 0.7 0.1 0.4 0.2 0.3 0.2 0.3 0.1 0.3 0.1 0.3-0.1 0.3-0.3 0.1-0.3 0.1-0.3 0-0.4 0.2-0.3 0.4-0.5 0.8-0.2 0.8-0.3 0.4-0.4 0.2-0.3 0.1-1.2 0.9 0 2.4 0.2 1 0.3 0.6 0.3 0.4 0.9 0.5-1.3 0.4-0.6 0.7-0.1 0.5 0.1 0.3-0.1 0.2-0.4 0.4-0.3 0.4-0.1 0.7-0.1 0.4 0.1 0.3 0 0.2-0.1 0.1-0.5 0.1-0.4 0.2-0.1 0.2-0.1 0.3-0.2 0.6-4.3 1.6-1.7 0.2-1.5-0.1-0.1 0-0.6 0-0.5 0.3-1.1 0.7-0.6 0.3-0.7 0.1-0.7-0.1-0.6-0.1-0.4-0.4-0.9-0.8-0.5-0.3-0.7 0.1-1.9 1.3 0.2-1.2 0-1.1 0.5-2-0.1-0.1-0.5-0.3-0.6-1.1-0.2-0.7 0.2-0.7-1-0.7-0.5-0.3-0.3-0.4 0-0.4 0-0.5-0.6-0.7 0.3-0.9 0-0.2-0.1-0.4 0.1-0.1 0.1-0.1 0.2-0.1 0.1-0.4 0.5-0.8 0.1-0.4 0.1-0.2-0.2-0.4 0.3-1.1 0.4-0.5 0.2-0.1 0.1 0 0.3 0 0.4-0.3 0.2-0.6 0.1-0.1 0.7-0.4 0.4-0.4 1.5-2.2 0.1-0.6-0.6-1.1-0.2-0.2-0.4-0.2-0.7 0.8-1.1 0.4-0.5-0.1-1.4-0.3-0.3-0.1-0.4-0.2-0.4-0.1-0.7-0.3 0.1-2.2 0.1-0.4 0.1-0.6-0.1-0.3-0.1-0.2-1-0.6-0.2-0.1-0.3 0-0.6 0.3-0.3 0-0.3 0-0.3 0-0.3 0-0.2 0.1-0.5 0.1-0.5 0 0.9-1 0.1-0.3 0.2-0.4 0.4-1.1 0.3-0.6 0.3-1.4 0.1-0.3 0.2-0.3 0.1-0.3 0-0.2-0.1-0.1 0.1-0.1 1.1-1.2 0.4-0.6 0.4-0.5 0.6-0.2 0.5 0.1 0.7 0 0.4-0.6 0.1-0.9 0.2-0.5 0.7-0.3 0.1 1.3 0.3 1.4 1.1 0 0.3-0.3 0.1-0.3 0.2-0.2 0.3-0.2 1 0.1 2.3-0.6 1-0.5 0.6 0.2 1 0.7 0.6 0.3 1.9 0.1-0.5 1.5 0 0.5 0.6 0.3 0.6 0.1 0.8-0.2 0.7-0.2 0.6-0.4 0.2-0.4 0-0.3 0.1-0.3 0.3-0.2 0.2 0 0.6 0.4 0.3 0 0.5 0.2 0.5 0.6 0.4 0.9 0.1 0.8 0.5-0.5 0.9-1 0.5-0.3 0.5-0.1 1.3 0 0.7-0.1 2.5-0.9 1.2-0.7 0.4-0.5z" id="PT17" />
<path d="M859.8 53.4l0.2 0 0.7 0.1 0.3 0 2.7-1 1.8-0.1 0.4 0 0.2-0.3 0.2-0.2 0.1-0.1 0.3 0.2 1.1 0.4 0.7 0.1 0.4 0.2 0.4 0.1 0.2 0.1 0.6-1.2-0.1-0.5 0.1-0.3 0.1-0.3 0.4-0.4 0.1-0.3 0-0.3 0.1-0.8 0.1-0.4 0.1-0.3 0.3-0.3 0.2-0.2 0.3 0 0.3 0 0.2 0.1 0.7-0.3 0.6-0.5 0.3-0.2 0.5-0.2 0.5-0.2 3.2-0.1 0.9-0.3 3.4-1.9 0.5 0 0.1-0.1 0 0.1 3.1 0.2 1.6-0.4 0.1 0.1 0 0.2-0.1 0.3-0.2 0.3-0.1 0.3-0.3 1.4-0.3 0.6-0.4 1.1-0.2 0.4-0.1 0.3-0.9 1 0.5 0 0.5-0.1 0.2-0.1 0.3 0 0.3 0 0.3 0 0.3 0 0.6-0.3 0.3 0 0.2 0.1 1 0.6 0.1 0.2 0.1 0.3-0.1 0.6-0.1 0.4-0.1 2.2 0.7 0.3 0.4 0.1 0.4 0.2 0.3 0.1 1.4 0.3 0.5 0.1 1.1-0.4 0.7-0.8 0.4 0.2 0.2 0.2 0.6 1.1-0.1 0.6-1.5 2.2-0.4 0.4-0.7 0.4-0.1 0.1-0.2 0.6-0.4 0.3-0.3 0-0.1 0-0.2 0.1-0.4 0.5-0.3 1.1 0.2 0.4-0.1 0.2-0.1 0.4-0.5 0.8-0.1 0.4-0.2 0.1-0.1 0.1-0.1 0.1 0.1 0.4 0 0.2-0.3 0.9-0.1 0.5-0.1 0.2-0.1 0.2-0.2 0.2-0.2 0.1-0.2 0.2-0.2 0.2-0.2 0.2-0.3 0.2-0.2 0.1-0.4 0.1-0.4-0.4-0.8-0.4-0.4 0.1-1.1-0.5-1.3-1 0-0.5-0.1-0.2-0.7-0.8-1.8-0.7-0.6 0.9-0.7 0.5-1.1 0.5-0.3 0.1-0.8 0.3-0.3 0-0.5-0.3-0.3-0.1-1.4 0.2-1.2 0.3-0.9-0.2-0.2-0.2-0.3-0.1-0.4 0-0.7 0.2-0.6 0.4-0.3 0.2-0.3 0.2-0.3 0.1-0.3 0.1-2 0-0.4 0.1-0.1 0-0.3-0.2-0.2-0.3-0.1-0.7-0.1-0.3 0.3-0.4 0.4-0.1 0.2-0.1 0.1-0.3-0.1-0.3-0.4-0.3-0.4-0.1-0.5-0.3-0.6-0.7-0.3-0.2-0.3-0.3-0.3-0.1-0.9-0.1-1-0.4-0.8-0.5-0.9 0 0-0.1-0.4-1.1-0.1-1-0.1-0.7-0.1-0.8-0.5-1.4-0.2-1.1-0.2-0.8 0-0.3z" id="PT03" />
<path d="M907.1 245.8l0.3 0.5 0.3 0.3 0.6 0.5 0.2 0.3 0.3 0.8 0.2 1.1 0.1 1-0.1 0.5 0.6 1.5 0.3 3.6 0.4 1.5-0.3 0.7 0.2 1 0.5 2 0.1 0.2 0.1 0.2 0.1 0.2 0.3 0.1 0 0.2-0.3 0.4-0.6-0.5-0.8-0.2-0.8 0-0.8 0.1-0.8 0.3-1.5 1-0.6 0.2-2.1 1.4-0.3 0.4-5.5 3.7-1.1 1.1-0.6 0-0.5-0.2-0.8-0.2-2.2 0-0.7-0.3-0.3 0.5-0.4 0-0.4-0.3-0.4-0.2 0.4 0.6 0.1 0.3 0.1 0.4-0.9-1.2-1.3-1.1-2.6-1.5-1.4-0.3-1.2-0.5-1.2 0-2.9 0.4-1.3-0.4-1.3-0.5-1.1 0.5-1.6 0.2-1.6-0.6 0 0.1-2-1.1-1.5-0.3-1.7 0.2-0.5 0.1-0.5 0.4-1.2 1.2-2.2 0-0.4 0.1-1 0.6-0.4 0.2-0.6 0.1-0.8 0.2-0.8 0.7-0.7-0.3-0.7 0.7-0.3 0.2-0.4 0.2-0.7 0.6-0.4 0.1-0.5-0.2-0.4-0.4-0.4-0.2-0.6 0.2 0.3-1.3 0.2-0.6 0.2-0.3 1.4-2.2 0.5-1.3 0.5-1.1-0.3-1.3 0.6-0.6 0.9-0.9 0.5-2-0.3-0.8-0.3-0.7 0.6-1.2 1-1.1 0.2-1.1 0.6-1.6 0.3-1.4 0.5 0.3 0.7 0.5 0.5 0.1 0.6 0.5 0.3 0.4 0.4 0.3 0.2 0.1 1.5 0.1 1 0.5 0.2 0.1 0.3 0.1 0.2-0.2 0.2-0.2 0.2-0.2 0.3-0.2 1.4-0.2 0.4 0.1 1.4 0.8 0.6 0.2 1.5 0.3 0.7-0.3 0.6-0.3 0.2-0.4 0-0.3 0.3-0.3 0.1-0.2 1.4-0.5 0.8-0.1 0.4-0.1 0.4 0.1 0.3-0.2 0.6-0.1 0.9 0.3 0.3 0.5 0.1 0.7 0.1 0.2 0.4 0.5 0.6 0.3 2.5 1.9 1.2 0.4 0.7 0 1.4 0.1 0.4 0 0.5-0.2 0.8-0.7 1.3-0.7 0.2-0.1 0-0.2-0.2-0.4-0.1-0.2 0-0.3 0.2-0.3 0.5-0.3 1.1-0.2 0.5 0 1-0.2 0.5-0.2 0.2-0.3 0.1-0.3 0.6-0.4 0.5-0.1 0.1-0.3 0.2-0.1 0.3-0.1 0.7-0.4 0.2 0 0.2-0.1 0.2-0.2 0.7-0.4 2.8-1.2 1.9 0 0.2 0.1 0.6 0.1 0.2 0.1 0.3-0.1 0.4-0.2 0.7-0.7 0.8-0.4 1 0 0.9-0.2z m-16 25l1.9 0.2 0.7-0.3 0.9-0.9 0.1 0.2 0 0.1 0.1 0.4-0.2 0.1 0 0.2-0.7 0.4-0.9 0.2-1 0-0.9-0.3 0-0.3z" id="PT08" />
<path d="M883.6 209.5l0.2-0.4 2.7 0.1 0.8-0.1 0.5 0.1 0.2 0 0.4 0.5 0.4 0.3 0.3 0.1 0.3 0 0.8-0.4 0.4 0 0.3 0.1 1.1 0.4 0.8 1 3.1 1.4 1.8 0.2 1 0.4 2.3 1.3 0.5 0.1 2.4 0.1 0.7 0.1 0.8 0.3 1.6 0 0.4-0.1 0.1-0.3 0.5-0.7 0.6-0.7 1-0.5 0.1-0.2 0.5-0.3 0.2-0.2 0.3-0.3 0.3-0.4 0.2-0.4 0-0.3 0-0.3 1.2-0.4 1.2-0.6 0.3-0.1 0.2 0 0.9-0.4 0.3 0 0.3 0 0.1 0.2 0 0.1 0.1 0.3 0 0.1 0.2 0.2 0.2 0.3 0.1 0.3 0.1 0.4 0.1 0.3 0.1 0.3 0.8 0.8 0.9 0.4 0.2 0.2 0.1 0.3 0.1 0.4 0.4 0.9 0.1 0.3 0.3 0.7 0.3 0.3 0.4 0.3 0.6 0.1 0.3-0.1 0.3-0.2 0.1-0.1 0.5 0.5 0.6 0 0.9-0.2 0.9-0.4 0.4-0.6 0.2 0 0.1 0.1 0.9-0.3 1.1-0.1 0.5 0.3 0.1 0.1-0.4 1.3-0.3 0.7-0.5 1.6-0.7 1.3-0.3 1.4-0.3 0.6-0.3 1.1-0.9 0.1-2.1-0.8-0.6-0.1-0.3 0.4-0.4 0.9-0.4 0.5-0.2 0.2-0.5 0.2-0.5 0.2-0.4-0.1-0.5-0.1-0.4 0-0.4 0.2-1.2 0.3-0.2 0.2 0 0.4 0.1 0.4 0 0.5-0.2 0.8-0.8 2.2-0.4 1.5-1 1.8-3.3 2.8-0.6 1-0.5 1.3-0.3 2.2-0.2 0.7-0.3 0.4-0.9 1-0.4 0.3 0.1 0.2 0 0.3-0.1 0.2 0 0.2-0.4 0.4-0.1 0.2 0 0.5 0 0.1 0.2 0 0.2 0.6 0 0.3 0.1 0.3-0.9 0.2-1 0-0.8 0.4-0.7 0.7-0.4 0.2-0.3 0.1-0.2-0.1-0.6-0.1-0.2-0.1-1.9 0-2.8 1.2-0.7 0.4-0.2 0.2-0.2 0.1-0.2 0-0.7 0.4-0.3 0.1-0.2 0.1-0.1 0.3-0.5 0.1-0.6 0.4-0.1 0.3-0.2 0.3-0.5 0.2-1 0.2-0.5 0-1.1 0.2-0.5 0.3-0.2 0.3 0 0.3 0.1 0.2 0.2 0.4 0 0.2-0.2 0.1-1.3 0.7-0.8 0.7-0.5 0.2-0.4 0-1.4-0.1-0.7 0-1.2-0.4-2.5-1.9-0.6-0.3-0.4-0.5-0.1-0.2-0.1-0.7-0.3-0.5-0.9-0.3-0.6 0.1-0.3 0.2-0.4-0.1-0.4 0.1-0.8 0.1-1.4 0.5-0.1 0.2-0.3 0.3 0 0.3-0.2 0.4-0.6 0.3-0.7 0.3-1.5-0.3-0.6-0.2-1.4-0.8-0.4-0.1-1.4 0.2-0.3 0.2-0.2 0.2-0.2 0.2-0.2 0.2-0.3-0.1-0.2-0.1-1-0.5-1.5-0.1-0.2-0.1-0.4-0.3-0.3-0.4-0.6-0.5-0.5-0.1-0.7-0.5-0.5-0.3 0.2-0.6 0.2-1.2 0.1-2.1-0.2-1.1-0.4-0.7-0.5-0.6 0-0.6 0.4-2 0.2-1.3 0.3-1.1 0.5-0.3 1-0.2 0.2-1.1 0-0.1-0.3 0.3-0.8 0.2-0.9 0-0.3-0.8 0.3-2.3 0.3-1.7 0.3 0.4 0.2 0.3 0.2 0.1 0.3 0 0.2-0.1 0.3-0.2 0.3-0.1 0.6 0.2 0.3 0.4 0.1 0.2 0.9 1.2 0.4 0.6 0.1 0.2 0.2 0 0.2-0.2 0.1-0.3 0.2-0.1 0.3 0.1 0.3 0.1 0.3 0.3 0.6 0.2 0.4 0.1 0.6-0.3 0.2-0.3 0.1-0.3 0-0.4 0.4-1 0.1-0.3 0.7-0.7 0.1-0.3 0.1-0.4 0.4-0.3 0.6-0.3 3.2-0.6 1.6 0.3 1 0 0.1 0 1.1 0.6 0.5-1.3 0.2-0.3 0.4-1.2 0.2-2.1 0-1.3-0.4-1-0.2-0.4-0.5-0.4-0.5 0-0.4-0.1-0.4-0.3-0.6-0.6-0.7-0.6-0.1-0.4-0.1-0.3 0-0.2 0.1-0.3 0-0.3 0.1-0.3 0.1-0.3 0.2-0.4 0.3 0 0.2 0.1 0.2 0 0.2 0 0.1-0.2 0.1-0.1 0.1-0.5 0.1-0.2 0-0.2 0-0.2 0.1-0.2 0.3-0.1 0.2-0.2 0.2-0.1 0.4 0.2 0.3 0.2 0.2 0.1 0.3-0.2 0.2-0.8 0.1-0.4 0.1-0.2 0.3-0.2 1.3 0 0.2-0.4 0.1-0.5 0.3-0.1 1.3-0.3 0.6-0.3 1.3-0.4 0.2-0.5 0-0.3 0-0.5-0.3-1.1-0.9-2z" id="PT02" />
<path d="M869.7 188.7l1.5 0.3 0.2 0.1 0.1 0.5-0.4 0.7 0.1 0.3-0.1 0.6-0.3 0.5-0.6 0.7-3 2.1-1.3 1.7 0 0.3 0 0.5 0.2 0.3 0.1 0.3 0.2 1.2 1.1 0.1 1.4 0.9 1 0.1 0.9 0.3 0.2-0.1 0.1-0.3-0.1-0.3-0.1-0.2 0.2-0.2 0.3 0.1 0.3 0.1 0.1 0.3 0.2 0.2 0.3 0.2 0.5 0.2 1 0 0.5-0.2 0.9-0.6 0.6-0.1 0.4 0.1 0.7 0.9 0.4 0.5 0.2 0.3 0.1 0.2 0 0.3 0.5 1.2 0 0.3-0.2 0.2 0 0.2 0.2 0.3 0.5 0.2 0.3 0.2 0.2 0.4-0.2 0.8-0.6 1 0 0.4 0.3 0.1 0.7 0.3 0.5 0.4 0.8 0.5 0.3 0.1 0.4 0 0.3 0 0.7 0.3 1.3 1 0.9 2 0.3 1.1 0 0.5 0 0.3-0.2 0.5-1.3 0.4-0.6 0.3-1.3 0.3-0.3 0.1-0.1 0.5-0.2 0.4-1.3 0-0.3 0.2-0.1 0.2-0.1 0.4-0.2 0.8-0.3 0.2-0.2-0.1-0.3-0.2-0.4-0.2-0.2 0.1-0.2 0.2-0.3 0.1-0.1 0.2 0 0.2 0 0.2-0.1 0.2-0.1 0.5-0.1 0.1-0.1 0.2-0.2 0-0.2 0-0.2-0.1-0.3 0-0.2 0.4-0.1 0.3-0.1 0.3 0 0.3-0.1 0.3 0 0.2 0.1 0.3 0.1 0.4 0.7 0.6 0.6 0.6 0.4 0.3 0.4 0.1 0.5 0 0.5 0.4 0.2 0.4 0.4 1 0 1.3-0.2 2.1-0.4 1.2-0.2 0.3-0.5 1.3-1.1-0.6-0.1 0-1 0-1.6-0.3-3.2 0.6-0.6 0.3-0.4 0.3-0.1 0.4-0.1 0.3-0.7 0.7-0.1 0.3-0.4 1 0 0.4-0.1 0.3-0.2 0.3-0.6 0.3-0.4-0.1-0.6-0.2-0.3-0.3-0.3-0.1-0.3-0.1-0.2 0.1-0.1 0.3-0.2 0.2-0.2 0-0.1-0.2-0.4-0.6-0.9-1.2-0.1-0.2-0.3-0.4-0.6-0.2-0.3 0.1-0.3 0.2-0.2 0.1-0.3 0-0.2-0.1-0.2-0.3-0.3-0.4 0.1-0.8 0-1.5-0.3-1.1-0.5-1.2-1.2-0.2-1.5-0.9 0.1-0.4 0.3-0.2 0.3-0.1 0.3-0.3 1.8-4.1 0.7-3.3 0.8-2.4-0.1-2.5-0.3-2.9-0.3-2.6-0.9-1.8-1-1-1.1-1.4-1.3-1-1.1-0.4 0.6-0.6 0.8 0.3 1.4 1.2 1.6 0.6 0.8 0.4 0.1 0.6 1.5 0 3.6 0.9 1.8-0.5-1.1-0.1-0.9-0.2-2.7-1.3-0.3-0.4-0.2-0.6-0.1-0.6 0.1-0.6 0.2-0.5 0.3-0.2 0-0.3-0.5-0.2-0.4-0.6-0.1-0.6 0.2-0.5-0.5-0.1-0.7 1.4-0.8 0.3 0 0.3 0.9 0.1 0.3 0.6 0 0.8-0.3 0.4-0.8-0.1-0.8-0.2-1.2-0.7-1.4-0.5-1.8 0.4-1.6 1.9 0.3 0.2-2.1 0.8-3.5 0.5-0.8 0.3-0.5 0.4-0.7 0.1-0.9-0.2-0.2 0-0.1-0.3 0-0.3 0.1-0.3 0.1-0.1 0.3-0.4 1.1-1.1 0.2-1.5 0-2.2-0.9-2.1-1.1-1.8-0.5-1.4 0.7-0.3 1.7-0.3 1.5-0.1 0.8 0.5 0.3 0.5 0.3 0-0.3-0.9 0.6-0.3 1.1-0.3 0.6-0.1 0-0.3 0.5-0.6 0.6-0.6 1-0.8 1.3-1.1 0.2-0.1 0.2-0.2 0.1-0.1 0.4-0.1 0.4 0-0.1 0.6 0.2 0.7 0.3 0.3 0.3 0.1 0.5 0 0.7-0.3 0.4-0.2 0.6-0.2 0.4 0.1 0.3 0.1 0.3 0.5 1 0.3 0.3 0 0.6-0.2 0.5-0.7 0.1-0.3 0.5-1.3 1-2.1 0.3-0.1 0.2 0.1 0.2 0.2 0.5 0.3 1 0.4 0.7-0.5 0.6-0.2 0.2 0.1 0 0.2-0.1 0.3 0 0.4 0 0.3-0.1 0.4 0.1 0.4 0.4 0.6 0.4 0.1 0.4-0.1 0.9 0.2z" id="PT15" />
<path d="M856.1 188.2l-0.4 0-0.4 0.1 0-0.3-0.3-0.6-0.4-0.9-0.3-1 0.3-0.7-0.8 0.1-0.4-0.8-0.2-1.1-0.4-1.1 1.6-3.3 0.9-1.5 1.3-0.9 0.7-0.2 1.6-0.1 0.7-0.3 1.3-1 0 0.2-0.1 0.2-0.2 0.1-0.7 0.9-1.4 0.4 0.2 0.4 0.3 0.3-0.7 1.1-0.1 0.4-0.4 0.5-0.4 0.8-1.2 3.4-0.5 1-0.3 0.4-0.5 0.6 0 0.5 0.6 0.8 0.1 0.2 0.2 0.3 0.3 1.1z m4.7-14.2l-1.6 1.2-3.1 0.4-0.5 0.4-0.7 1.3-1.8 2.5-2 4-1.1 1.3-0.4 0.7-0.2 0.7 0.1 0.9 0.1 1.6 0.1 1.1-0.5 1.1-1.9 0.5-2 0.4-2.4-0.2-0.6 0.5-0.7 0.8-1.4-0.9-1.6-0.7-0.9-0.1-1.5 0.2-0.8-0.2 0.1-1 0.2-0.8-0.5-2 0-1 0.2-0.4 0.5-0.6 0.9-0.9 1.1-3.7-0.1-2.9-0.4-1.7 0.4-1.1 0.1-1.2 1.5-2.6 0.4-1.3 0.7-1.7 0.2-1.7 0.2-1.5-0.2-1.2 0.3 0 1.4 0 1.5-1 0.3-0.2 0.5 0.1 0.2 0 0.2 0.1 0.3 0.4 0.3 0.5 0.8 2.9 0.6 0.5 0.8-0.6 0.7-0.9 0.9-1.4 0.7-1 0.4-0.2 0.2-0.1 0.5-0.1 0.5 0.1 0.7 0.3 1 0.3 0.4 1.1-0.1 0.7 2.5 0.7 1.5-0.4 0.3 0.7 1.8 1.8-0.5 0.4-0.6 0.2-1-0.1-0.5 0.2-0.5 0.4 0 0.2 0.2 0.3 0.3 0.1 0.2 0.2 0.3 0.6 0.1 0.3 1.1 1 0.2 0.2 0.8 0.3 0.2 0.2 0.2 0.1 0.1 0.3 0.3 0.6z m-9 10l0.2-0.1 0 0.3-0.2 0.7-0.5 0.7-0.7 0.7-0.2-0.1 0.3-0.8 0.3-0.7 0.4-0.4 0.3-0.2 0.1-0.1z" id="PT11" />
<path d="M882.4 177.8l-0.3 0.6-0.3 0.2-0.5 0-0.1 0-0.2 0.3-0.1 0.5 0 0.7-0.1 0.5-0.2 0.4-0.2 0.3-0.2 0.3-0.1 0.3 0.1 0.3 0.2 0.3 0.3 0.2 1.9 0.8 0.4 0.1 0.2 0.1 0.2 0.4-0.2 0.8-0.1 0.3 0.3 0.4 0.6 0.7 0.2 0 0.4 0.1 0.2 0.3 0 0.4-0.2 0.7-0.6 0.6-0.6-0.4-0.1-0.2-0.2-0.6-0.2-0.1-0.2 0.1-0.2-0.1-0.1-0.2-0.1-0.2-0.1-0.3-0.2-0.3-0.4-0.1-1.2-0.2-0.3-0.3-0.9-1-0.3-0.2-0.2 0-0.2 0.2-0.1 0.2-0.2 0.2-0.2-0.1-0.3 0-0.4 0.2-0.5-0.1-0.6-0.2-0.3 0-0.1 0.2 0 0.3-0.2 0.3-0.2 0.1-0.2 0.1-0.2 0.1-0.5 0-0.3 0.1-0.8 0.7-0.4 0.3-1.6 0.3-1.7 1.5-0.9-0.2-0.4 0.1-0.4-0.1-0.4-0.6-0.1-0.4 0.1-0.4 0-0.3 0-0.4 0.1-0.3 0-0.2-0.2-0.1-0.6 0.2-0.7 0.5-1-0.4-0.5-0.3-0.2-0.2-0.2-0.1-0.3 0.1-1 2.1-0.5 1.3-0.1 0.3-0.5 0.7-0.6 0.2-0.3 0-1-0.3-0.3-0.5-0.3-0.1-0.4-0.1-0.6 0.2-0.4 0.2-0.7 0.3-0.5 0-0.3-0.1-0.3-0.3-0.2-0.7 0.1-0.6-0.3-1.1-0.2-0.3-0.1-0.2-0.6-0.8 0-0.5 0.5-0.6 0.3-0.4 0.5-1 1.2-3.4 0.4-0.8 0.4-0.5 0.1-0.4 0.7-1.1-0.3-0.3-0.2-0.4 1.4-0.4 0.7-0.9 0.2-0.1 0.1-0.2 0-0.2 0.5-0.6 0.4-0.7-1 0.7-0.3-0.6-0.1-0.3-0.2-0.1-0.2-0.2-0.8-0.3-0.2-0.2-1.1-1-0.1-0.3-0.3-0.6-0.2-0.2-0.3-0.1-0.2-0.3 0-0.2 0.5-0.4 0.5-0.2 1 0.1 0.6-0.2 0.5-0.4-1.8-1.8-0.3-0.7-1.5 0.4-2.5-0.7 0.1-0.7-0.4-1.1-0.1-1.5-0.2-0.9 0.1-0.5 0.8-1.4 0.7-0.2 0.3-0.2 0.3-0.4 1.2-2.5 0.5-0.5 1.1-0.4 2.3-0.2 1.8 0.2 0.5-0.4 0.1-0.3 0-0.2 0-0.1 0-0.1-0.3-0.5 0-0.3 0-0.4 0.2-0.2 0.2 0 0.3 0.2 0.4 0 0.3-0.1 0.9-1.2 0.2-0.4-0.4-1.3 0-0.8-0.4-1.5 0.8-0.6 0.4-0.2 0.2-0.3 0.3-0.2 0.2-0.5-0.2-0.7-0.3-0.4-0.3-0.2-0.2-0.3-0.1-0.3 0-0.6-0.1-0.8 0-0.4 0.2-0.4 0.2-0.3 1.6-0.8 0.7 0.2 0.4-0.1 0.7-0.3 1.8-1.3 0.5-0.2 0.3 0 0.5-0.4 0.5-0.1 0.5 1.9 0.1 0.6 0.3 1.1 0 0.4 0.1 0.2 0.1 0.2 0.6-0.2 1.5-0.5 0.5-0.1 0.8-0.4 0.7 0.1 0.2-0.1-0.2-0.9 0-0.4 0-0.2 0.3 0.1 1.5 0.2 0.2 0.7 0.4 0.2 0.5 0.2 0.4 0.2 0.2 0.2 0.1 0.3 0.1 0.2 0 0.3-0.1 0.2 0.1 0.8-0.2 0.5 0 0.9 0.1 1.7 0.3 0.6 2 0.8 1 0.6 0.7 0 1.3-0.1 0.8-0.3 0-0.2-0.1-0.3-0.2-0.8-0.1-0.5 0.2-0.6 0.3-0.5 0.4-2.4 0.2-0.3 0.7-0.2 1.2 0.4 0.9 0.1 0.2 0.2 0.1 0.3 0.1 0.3 0 0.4 0 0.3 0.1 0.7-0.1 0.7 0.1 0.4 0.3 0.2 0.4 0.1 0.4 0 0.7 0.3 0.6 0.4 0.6 0.5 0.8 0.8 0.7 1.2 0.2 0.4 0.3 0.8 0.3 0.5-0.8 0.4-0.2 0.2-0.7 0.9-0.2 0.1-0.2 0.1 0-0.1-0.5-0.5-1.5-0.8-0.7-0.2-0.5 0.2-0.6 0.6-0.8 1.2-0.8 2 1.5 1.5 0.5 0.4 0.2 0.4 0.1 0.2-0.8 1.2-1.7 1.2-0.3 0.2-0.1 0.7-0.1 0.3-0.6 0.8-0.8 1-0.2 0.3-0.1 0.2-0.3 0.2-0.5 0.2-0.7-0.2-0.4 0.1-0.4 0.5-0.4 1-0.9 0.7-2.1 2-2 1.4-0.5 0.5-1.1 1.7 0 0.8 0.9 0.3 0.3 0.3 0.4 0.3 0.1 0.5 0.1 0.4 0.2 0.3 0.4 0.4 0.3 0.5 0.1 0.3 0.1 0.4 0.5 0.4 1.6 0.5z" id="PT14" />
<path d="M884.9 134.6l-0.7 1.4-0.3 0.3-0.4 0.3-0.3 0-0.3 0.2-0.3 0.4-0.3 0.4-0.2 0.2-0.4-0.1-1.6 0.5-0.2 0.2-0.2 0.3 0 0.2 0 0.3-0.2 0.2-0.3 0.4 0 0.2 0.2 0.6-1.5-0.2-0.3-0.1 0 0.2 0 0.4 0.2 0.9-0.2 0.1-0.7-0.1-0.8 0.4-0.5 0.1-1.5 0.5-0.6 0.2-0.1-0.2-0.1-0.2 0-0.4-0.3-1.1-0.1-0.6-0.5-1.9-0.5 0.1-0.5 0.4-0.3 0-0.5 0.2-1.8 1.3-0.7 0.3-0.4 0.1-0.7-0.2-1.6 0.8-0.2 0.3-0.2 0.4 0 0.4 0.1 0.8 0 0.6 0.1 0.3 0.2 0.3 0.3 0.2 0.3 0.4 0.2 0.7-0.2 0.5-0.3 0.2-0.2 0.3-0.4 0.2-0.8 0.6 0.4 1.5 0 0.8 0.4 1.3-0.2 0.4-0.9 1.2-0.3 0.1-0.4 0-0.3-0.2-0.2 0-0.2 0.2 0 0.4 0 0.3 0.3 0.5 0 0.1 0 0.1 0 0.2-0.1 0.3-0.5 0.4-1.8-0.2-2.3 0.2-1.1 0.4-0.5 0.5-1.2 2.5-0.3 0.4-0.3 0.2-0.7 0.2-0.8 1.4-0.1 0.5 0.2 0.9 0.1 1.5-1-0.3-0.7-0.3-0.5-0.1-0.5 0.1-0.2 0.1-0.4 0.2-0.7 1-0.9 1.4-0.7 0.9-0.8 0.6-0.6-0.5-0.8-2.9-0.3-0.5-0.3-0.4-0.2-0.1-0.2 0-0.5-0.1-0.3 0.2-1.5 1-1.4 0-0.3 0-0.3-1.1-0.4-1-1.3-1.3-0.3-0.5 0.4-0.1 1.7 0.4 2.6-1.7 0.7-0.6 0.8-0.1 0.4 0.5 0.4 0.2 0.4-0.5-0.3-0.6-0.6-0.6 0.6-0.9 0.8-1 0.3-0.5 0.7-0.4 1-0.7 0.6-0.9 0.3-0.7 0.8-1.4 0.1-0.8-0.1-0.9 0.4-1.3 0.3-1.7 2.8-7.7 3.3-9.7 0.2 0.1 0.9 0.5 0.4 0.2 0.5 0.2 1.2 0.3 0.3-0.1 0.4-0.3 0.9-0.4 1.9 0.2 0.7 0 0.8 0.2 0.4 0.3 0.6 0.6 0.4 0.5 0.1 0.1 0.2 0 0.4 0 0.2-0.1 0.1-0.1 0.5-0.9 0.3-0.2 0.3-0.1 0.2-0.1 0.2 0 0.3 0.2 0.2 0.2 0.3 1.1 0 0.4 0 0.8 0.1 0.3 0.1 0.3 0.2 0.2 0.3-0.3 0.6-0.8 1-0.6 1.2-1 0.7 0.1 0.1-0.3 0.3 0.1 0.3 0.2 0.4 1 0.4 0.9 0.1 0.6 0 0.4-0.2 0.3-0.3 0.2-0.2 0.2 0.3 0.1 0.3 0 1.5-0.6 1.2-1.4 0.4-0.1 0.6 0.3 0.3-0.1 0.2-0.2 0.1-0.4-0.2-0.3-0.4-0.4-0.1-0.1-0.1-0.4 0-0.3 0.5-0.9 1.6-1.4 1.1 0.5 1.1-1.5 0.5 0.3 0.2 0.2 0.2 0.3 0.1 0.3-0.2 1.4 0.1 0.8 1.5 2.4-0.4 0.3-0.2 0.2-0.1 0.5 0.1 0.3 0 0.2 0.1 0-0.2 0.6z" id="PT10" />
<path d="M897.4 119.9l-0.8 1.8-0.1 0.4 0.2 0.6 0.2 0.3 0.4 0.3 0.6 0.8 1 0.7 0.1 0.5 0.1 0.3 0 0.3 0 0.2-0.2 0.3-0.3 0.3-0.7 0.5-0.4 0.1-0.2-0.1-0.2-0.2 0-0.1-0.2-0.1-0.2 0.1-0.2 0.3 0.1 0.8-0.1 0.9-0.7-0.5-0.3-0.2-0.4-0.1-0.4 0-0.5 0.1-0.9 0.5-0.4 0.4-0.1 0.4 0.1 0.7 0 0.2-0.4 0.3-0.7 0-0.3 0-0.2 0.2-0.5 0.7-0.2 0.1-0.1 0-0.3-0.1-0.2-0.1-0.3 0.1-0.2 0.1-0.2 0.2-0.5 0.1-0.2 0-0.1 0.3 0 0.2-0.2 0.2-0.6 0-0.8 0.2-0.4 0.5-0.5 0.1-0.1 0-0.3 0.2-0.1 0.3-0.6 0.6 0.2-0.6-0.1 0 0-0.2-0.1-0.3 0.1-0.5 0.2-0.2 0.4-0.3-1.5-2.4-0.1-0.8 0.2-1.4-0.1-0.3-0.2-0.3-0.2-0.2-0.5-0.3-1.1 1.5-1.1-0.5-1.6 1.4-0.5 0.9 0 0.3 0.1 0.4 0.1 0.1 0.4 0.4 0.2 0.3-0.1 0.4-0.2 0.2-0.3 0.1-0.6-0.3-0.4 0.1-1.2 1.4-1.5 0.6-0.3 0-0.3-0.1 0.2-0.2 0.3-0.2 0.2-0.3 0-0.4-0.1-0.6-0.4-0.9-0.4-1-0.3-0.2-0.3-0.1-0.1 0.3-0.7-0.1-1.2 1-1 0.6-0.6 0.8-0.3 0.3-0.2-0.2-0.1-0.3-0.1-0.3 0-0.8 0-0.4-0.3-1.1-0.2-0.2-0.3-0.2-0.2 0-0.2 0.1-0.3 0.1-0.3 0.2-0.5 0.9-0.1 0.1-0.2 0.1-0.4 0-0.2 0-0.1-0.1-0.4-0.5-0.6-0.6-0.4-0.3-0.8-0.2-0.7 0-1.9-0.2-0.9 0.4-0.4 0.3-0.3 0.1-1.2-0.3-0.5-0.2-0.4-0.2-0.9-0.5-0.2-0.1 1.2-3.6 0.6-0.7 0.4 0.6 0.6 0.3 1.5 0.1 0-0.4-0.6-0.6-0.6-0.4-0.6-0.2-1.7-0.2-0.6-0.4-0.4-0.7 0-1 0.4-1.4 1.1-2.2 2.5-9.5 0.4-2.3 0 0.1 4 4.1 1.2 0.2 0.3-0.5 0.2-0.8 0.7-1.2 1.4 1-0.2 1.1 0 0.5 0.2 0.8 0.2 0.4 0.3 0.1 0.3-0.2 0.6-0.4 0.6-0.2 0.4-0.1 0.2 1 0.4 0.8 0.1 0.3-0.1 0.3-0.1 0.7-0.1 0.1-0.2 0.2-0.1 0.1-0.2 0.2-0.2 0.3-0.3 0.7-0.1 0.5 0 0.4 0.1 0.3 0.2 0.3 2.1 0.2 0.3-0.2 0.3-0.3 0.2-0.4 0.8-1.1 0.2-0.4 0.3-0.3 0.3-0.1 0.8 0 0.4-0.5 0-0.4 0.3-0.4 0.4 0.2 0.4 0.3 1.1 0.3 0.8 0.6 0.6 0.5 0.6 0.3 0.3 0.3 0.2 0 0.1-0.2 0.1-0.2 0-0.2 0.1-0.2 0.2-0.1 1.5-0.3 2.1 0.3 2.7-2 2-0.9 1.6-1.1 0.6-0.3 0.9-1.4 1.2-0.9 0.4-0.5 0.4-0.3 0.8-0.2 0.3 1.1 0.3 0.2 0.2 0.3 0 0.4-0.1 0.4-0.2 0.3-0.3 0.2-0.3 0.1-0.3 0.2-0.1 0.4 0.3 0.4 0.3 0.2 0.6 0.2 0.2 0.2 0 0.4 0.3 1.7 0.2 0.4 0.5 0.5 0.1 0.2 0 0.4-0.9 0.5-0.3 0.4-0.2 0.5-0.2 0.7-0.4 1 1 0.5 0.5 0.9z" id="PT06" />
<path d="M876.8 113.2l-0.3 0.4 0 0.4-0.4 0.5-0.8 0-0.3 0.1-0.3 0.3-0.2 0.4-0.8 1.1-0.2 0.4-0.3 0.3-0.3 0.2-2.1-0.2-0.2-0.3-0.1-0.3 0-0.4 0.1-0.5 0.3-0.7 0.2-0.3 0.2-0.2 0.1-0.1 0.2-0.2 0.1-0.1 0.1-0.7 0.1-0.3-0.1-0.3-0.4-0.8-0.2-1-0.4 0.1-0.6 0.2-0.6 0.4-0.3 0.2-0.3-0.1-0.2-0.4-0.2-0.8 0-0.5 0.2-1.1-1.4-1-0.7 1.2-0.2 0.8-0.3 0.5-1.2-0.2-4-4.1 0-0.1 0.1-0.6 0.7-2.2 0.4-2.8 0.1-0.1 0.2-0.2 0 1 0 0.3 0.7-1.2 0.6-0.4 0.5 0.3 0.2 0 0-0.3-0.1-0.1-0.1-0.3-0.1-0.3 0.1-0.3 0.3-0.2 0.2 0.2 0.2 0.2 0.2 0.2 0.3-0.2 0.3-0.3 0.5-0.8-0.6-0.4-0.3-0.6 0.1-0.5 0.6-0.2 0.9-0.1 0.6-0.2 0.6-0.4 0.6-0.6-0.7 0.1-0.9 0.4-0.7 0.2-0.2 0.1-0.2 0-0.8-0.4-0.3-0.4-0.3-1.3 1.4-1.9-0.3-1.1-0.1 0.8-0.2 0.7-0.3 0.2-0.2-0.7-0.5 1-0.4 1.2-0.2 1.4-0.1 1.2-0.2 0.7-0.4 1.2-0.5 1-0.4 0.5 3.5-16.3 0-1.1 0.3-0.1 1.6-0.2 0.6 0.4 1.1-0.4 0.6-0.4 0.4 0 0.4 0.1 0.3 0.3 0.5 0.3 0.4 0 0.2-0.2 0.3-0.7 0.1-0.2 0.7-0.8 0.7 0.8 0.2 0.3 0.2 0.5 0.7 0.5 0.3 0 0.1-0.2 0-0.3-0.2-0.3 0-0.3 0-0.2 0.9-0.5 0.8 0.3 1.7-1.2 0.1-0.2 0.2-0.5 2.2 1.4 0.1 0.3 0.1 0.5 0 0.3 0 1.1 2.7 1.3 0.4 0 0.5-0.1 0.3-0.6 0.1-0.2 0.1-0.1 0.5-0.4 0.2 0 0.1 0.2 0.1 0.2 0 0.1-0.1 0.1 0 0.2-1.2 1.7-0.1 0.5-0.2 0.6 0.1 0.3 0.1 0.6 0.2 1.3 0.3 0.8 0 0.6-0.2 0.3-0.3 0.1-0.3 0-0.3-0.1-0.3-0.3-0.3-0.1-0.4 0-0.7 0.4-0.4 0-0.4 0-0.3-0.2-1.1 0.1 0.4 1.5-0.1 0.3-0.3 0.5-0.7 1.6-0.9 1-0.8 0.7-0.4 0.6 0 0.2 0 0.2 0.1 0.3 0.1 0.3 0.5 0.6 0.3 0.4 0.1 0.3 0 1.3 0.3 0.7 0.1 0.1 0.7 0.3 0.6 0.5-1.5 0.5-0.2 0.3-0.2 0.3 0 0.4 0.4 1 0.2 0.9 0.2 0.3 0.3 0.2 0.2 0.3 0.4 0.7-2 0.8-0.8 0.7-0.1 0.2 0.1 0.4 0.4 0.6 0 0.6-0.2 0.4-1 1.7 0.1 1.4z" id="PT01" />
<path d="M890.4 65.4l0.6 0.7 0 0.5 0 0.4 0.3 0.4 0.5 0.3 1 0.7-0.2 0.7 0.2 0.7 0.6 1.1 0.5 0.3 0.1 0.1-0.5 2 0 1.1-0.2 1.2-1.6 1-4.4 1.5-1.1 0.1-3.6-0.2-1.2 0.2-2.4 1-0.2 0.5-0.1 0.2-1.7 1.2-0.8-0.3-0.9 0.5 0 0.2 0 0.3 0.2 0.3 0 0.3-0.1 0.2-0.3 0-0.7-0.5-0.2-0.5-0.2-0.3-0.7-0.8-0.7 0.8-0.1 0.2-0.3 0.7-0.2 0.2-0.4 0-0.5-0.3-0.3-0.3-0.4-0.1-0.4 0-0.6 0.4-1.1 0.4-0.6-0.4-1.6 0.2-0.3 0.1 0-0.7-0.5-3.2 0.1-1.7 0.6-0.6 0-0.3-1.3-0.4-0.7-1.3-0.5-1.7-0.7-1.3 0.2-0.7-0.1-0.5-0.2-0.5-0.2-0.6 0-1.5-0.1-0.5-0.3-0.1-0.1-0.5-0.2-0.5-0.5-0.9-0.2-0.7 0-0.6-0.1-1.4 0.4-1.5 0.9 0 0.8 0.5 1 0.4 0.9 0.1 0.3 0.1 0.3 0.3 0.3 0.2 0.6 0.7 0.5 0.3 0.4 0.1 0.4 0.3 0.1 0.3-0.1 0.3-0.2 0.1-0.4 0.1-0.3 0.4 0.1 0.3 0.1 0.7 0.2 0.3 0.3 0.2 0.1 0 0.4-0.1 2 0 0.3-0.1 0.3-0.1 0.3-0.2 0.3-0.2 0.6-0.4 0.7-0.2 0.4 0 0.3 0.1 0.2 0.2 0.9 0.2 1.2-0.3 1.4-0.2 0.3 0.1 0.5 0.3 0.3 0 0.8-0.3 0.3-0.1 1.1-0.5 0.7-0.5 0.6-0.9 1.8 0.7 0.7 0.8 0.1 0.2 0 0.5 1.3 1 1.1 0.5 0.4-0.1 0.8 0.4 0.4 0.4 0.4-0.1 0.2-0.1 0.3-0.2 0.2-0.2 0.2-0.2 0.2-0.2 0.2-0.1 0.2-0.2 0.1-0.2 0.1-0.2 0.1-0.5z" id="PT13" />
<path d="M914.9 75.5l-1 3.2-0.3 1.4-0.1 0.9 0.2 1.3-0.5 0.3-0.9-0.1-0.1 0.2 0.1 0.3 0.2 0.6 0.3 0.2 0.4 0.3 0.3 0.1 0.2 0.3 0 0.3 0 0.6-0.3 0.8-1.2 1.1-1.3-0.4-0.5 0.3 0.2 0.9 0.1 0.3 0.1 0.5 0 0.5-0.8 1.9-0.4 0.6-0.6-0.1-0.2-0.3-0.2-0.2-1.3-1.3-0.5-0.4-0.4-0.2-0.9 0-0.4 0.2-0.3 0.3-0.1 0.2-0.4 1.3-0.4 0.7-0.4 0.6-0.2 0.3 0.1 0.4 0.3 0.3 0.9 0.8 0.2 0.3 0.1 0.3 0 0.3-0.1 0.3-0.4 0.5 0.4 0.7 0.8 0.5 0.6 0.9-0.2 1.2-0.5 0.6-0.8 2.6 0.1 1-2.4 0.4-1.5 0.6-1.2 0.8-1 0.4-1 0.7-0.4 0.1-1.1 0.2-0.3 0.3-0.8 0.2-0.4 0.3-0.4 0.5-1.2 0.9-0.9 1.4-0.6 0.3-1.6 1.1-2 0.9-2.7 2-2.1-0.3-1.5 0.3-0.2 0.1-0.1 0.2 0 0.2-0.1 0.2-0.1 0.2-0.2 0-0.3-0.3-0.6-0.3-0.6-0.5-0.8-0.6-1.1-0.3-0.4-0.3-0.4-0.2-0.1-1.4 1-1.7 0.2-0.4 0-0.6-0.4-0.6-0.1-0.4 0.1-0.2 0.8-0.7 2-0.8-0.4-0.7-0.2-0.3-0.3-0.2-0.2-0.3-0.2-0.9-0.4-1 0-0.4 0.2-0.3 0.2-0.3 1.5-0.5-0.6-0.5-0.7-0.3-0.1-0.1-0.3-0.7 0-1.3-0.1-0.3-0.3-0.4-0.5-0.6-0.1-0.3-0.1-0.3 0-0.2 0-0.2 0.4-0.6 0.8-0.7 0.9-1 0.7-1.6 0.3-0.5 0.1-0.3-0.4-1.5 1.1-0.1 0.3 0.2 0.4 0 0.4 0 0.7-0.4 0.4 0 0.3 0.1 0.3 0.3 0.3 0.1 0.3 0 0.3-0.1 0.2-0.3 0-0.6-0.3-0.8-0.2-1.3-0.1-0.6-0.1-0.3 0.2-0.6 0.1-0.5 1.2-1.7 0-0.2 0.1-0.1 0-0.1-0.1-0.2-0.1-0.2-0.2 0-0.5 0.4-0.1 0.1-0.1 0.2-0.3 0.6-0.5 0.1-0.4 0-2.7-1.3 0-1.1 0-0.3-0.1-0.5-0.1-0.3-2.2-1.4 2.4-1 1.2-0.2 3.6 0.2 1.1-0.1 4.4-1.5 1.6-1 1.9-1.3 0.7-0.1 0.5 0.3 0.9 0.8 0.4 0.4 0.6 0.1 0.7 0.1 0.7-0.1 0.6-0.3 1.1-0.7 0.5-0.3 0.6 0 0.1 0 1.5 0.1 1.7-0.2 4.3-1.6 0.5 0 0.6 0.4 1.1 1.6 0.4 0.4 1.2 0.4 1-0.1z" id="PT18" /></g></svg>